<svg width="24" height="16" viewBox="0 0 24 16" fill="none" xmlns="http://www.w3.org/2000/svg">
<g clip-path="url(#clip0_450_6940)">
<path d="M0 0H24V16H0V0Z" fill="white"/>
<path d="M0 0H24V5.3349H0V0Z" fill="#D80027"/>
<path d="M0 10.6698H24V16.0047H0V10.6698Z" fill="black"/>
<path d="M10.3265 9.58219C10.3265 9.58219 10.3265 6.84442 10.5375 6.54908C10.6828 6.3475 11.325 6.79285 11.6015 6.76004C11.6015 6.76004 11.7984 6.40844 11.8125 6.19748C11.8265 5.98184 11.7609 5.8412 11.5828 5.90683C11.5828 5.90683 11.5265 5.80838 11.6062 5.75213C11.6812 5.69587 11.8687 5.75682 11.8687 5.75682C11.8687 5.75682 11.8453 5.70994 11.9437 5.71462C12.0797 5.724 12.2812 5.78026 12.2906 5.97715C12.3 6.12248 12.3047 6.33812 12.3094 6.385C12.3422 6.70378 12.4359 6.79285 12.4359 6.79285C12.4359 6.79285 13.2984 6.36156 13.4672 6.54908C13.6219 6.72722 13.6781 9.58219 13.6781 9.58219L12.8297 8.79461L13.3968 10.1776C13.3968 10.1776 12.7219 10.2901 12.0422 10.2901C11.3625 10.2901 10.5844 10.0932 10.5844 10.0932L11.2312 8.77117L10.3265 9.58219Z" fill="#C09300"/>
</g>
<defs>
<clipPath id="clip0_450_6940">
<rect width="24" height="16" fill="white"/>
</clipPath>
</defs>
</svg>
