<svg width="24" height="16" viewBox="0 0 24 16" fill="none" xmlns="http://www.w3.org/2000/svg">
<g clip-path="url(#clip0_450_6958)">
<path d="M0 0H24V16H0V0Z" fill="#055E1C"/>
<path d="M8.60381 9.565C8.60381 10.1413 9.05995 10.6085 9.62269 10.6085H12.6793C12.6793 11.0887 13.0595 11.4781 13.5284 11.4781H14.5473C15.0162 11.4781 15.3964 11.0887 15.3964 10.6085V9.565H8.60381ZM15.4811 4.52148V6.95627C15.4811 7.33985 15.1764 7.65189 14.8019 7.65189V8.69538C15.7382 8.69538 16.5 7.91524 16.5 6.95627V4.52148H15.4811ZM8.17927 6.95631C8.17927 7.33989 7.87458 7.65194 7.5 7.65194V8.69543C8.43637 8.69543 9.19809 7.91528 9.19809 6.95631V4.52153H8.17922L8.17927 6.95631Z" fill="white"/>
<path d="M13.9528 4.52136H14.9717V6.95615H13.9528V4.52136ZM12.4245 5.91285C12.4245 6.00875 12.3483 6.08675 12.2547 6.08675C12.161 6.08675 12.0849 6.00875 12.0849 5.91285V4.5215H11.066V5.91285C11.066 6.00875 10.9898 6.08675 10.8962 6.08675C10.8025 6.08675 10.7263 6.00875 10.7263 5.91285V4.5215H9.70746V5.91285C9.70746 6.5841 10.2407 7.13024 10.8961 7.13024C11.1485 7.13024 11.3827 7.04901 11.5754 6.91101C11.768 7.04901 12.0022 7.13024 12.2546 7.13024C12.3055 7.13024 12.3554 7.12658 12.4046 7.12016C12.3325 7.4248 12.0646 7.65196 11.7452 7.65196V8.69544C12.6816 8.69544 13.4433 7.9153 13.4433 6.95633V4.5215H12.4244L12.4245 5.91285Z" fill="white"/>
<path d="M9.70746 7.65179H11.2356V8.69528H9.70746V7.65179Z" fill="white"/>
</g>
<defs>
<clipPath id="clip0_450_6958">
<rect width="24" height="16" fill="white"/>
</clipPath>
</defs>
</svg>
