<svg width="16" height="12" viewBox="0 0 16 12" fill="none" xmlns="http://www.w3.org/2000/svg">
<path d="M5.54976 9.5155L14.1883 0.877002C14.3369 0.728168 14.5109 0.652168 14.7103 0.649002C14.9096 0.645835 15.0868 0.721835 15.242 0.877002C15.3972 1.03217 15.4748 1.21034 15.4748 1.4115C15.4748 1.61284 15.3972 1.79108 15.242 1.94625L6.18251 11.0213C6.00168 11.2019 5.79076 11.2923 5.54976 11.2923C5.30876 11.2923 5.09785 11.2019 4.91701 11.0213L0.742013 6.84625C0.593346 6.69742 0.520012 6.52075 0.522012 6.31625C0.523846 6.11192 0.602346 5.93217 0.757512 5.777C0.912679 5.62183 1.09085 5.54425 1.29201 5.54425C1.49335 5.54425 1.6716 5.62183 1.82676 5.777L5.54976 9.5155Z" fill="#374151"/>
</svg>
