<svg width="24" height="24" viewBox="0 0 24 24" fill="none" xmlns="http://www.w3.org/2000/svg">
<path d="M9.53016 6.46972C9.25555 6.19512 8.82083 6.17765 8.52625 6.41796L8.46961 6.46972L3.46961 11.4697C3.17672 11.7626 3.17672 12.2374 3.46961 12.5303L8.46961 17.5303C8.7625 17.8231 9.23728 17.8231 9.53016 17.5303C9.82298 17.2374 9.82298 16.7626 9.53016 16.4697L5.06043 12L9.53016 7.53027L9.58191 7.47363C9.82222 7.17905 9.80476 6.74433 9.53016 6.46972Z" fill="#374151"/>
<path d="M4 11.25C3.58579 11.25 3.25 11.5858 3.25 12C3.25 12.4142 3.58579 12.75 4 12.75H20C20.4142 12.75 20.75 12.4142 20.75 12C20.75 11.5858 20.4142 11.25 20 11.25H4Z" fill="#374151"/>
</svg>
