<svg width="12" height="12" viewBox="0 0 12 12" fill="none" xmlns="http://www.w3.org/2000/svg">
<path fill-rule="evenodd" clip-rule="evenodd" d="M5.875 11.25C2.90647 11.25 0.5 8.84355 0.5 5.875C0.5 2.90647 2.90647 0.5 5.875 0.5C6.8534 0.5 7.7718 0.761755 8.56275 1.21931C8.8788 1.40211 9.39865 1.74789 9.8984 2.30577C9.47375 2.56755 9.0616 2.89714 8.67425 3.25304C8.04065 3.83514 7.4438 4.51534 6.9325 5.1574C6.42025 5.80075 5.9877 6.4136 5.68335 6.86525L5.63945 6.9306C5.34245 6.51785 5.03435 6.23065 4.76296 6.03325C4.56036 5.8859 4.38099 5.79065 4.24615 5.73075C4.17877 5.7008 4.12253 5.67965 4.08007 5.66525C4.05884 5.6581 4.04103 5.65255 4.02698 5.64845C4.01995 5.6464 4.01387 5.6447 4.00876 5.6433L4.00182 5.64145L3.99891 5.6407L3.99761 5.64035L3.99698 5.6402C3.99698 5.6402 4.00876 5.6433 3.99639 5.64005C3.72849 5.5731 3.45702 5.73595 3.39004 6.00385C3.32366 6.2694 3.4831 6.53845 3.74678 6.6084C3.7485 6.6089 3.75264 6.61015 3.75903 6.61235C3.77419 6.6175 3.80193 6.6276 3.84002 6.64455C3.91612 6.67835 4.03363 6.73935 4.17478 6.842C4.45467 7.04555 4.83924 7.4214 5.1779 8.09875C5.25935 8.2616 5.42285 8.3673 5.60475 8.3747C5.78665 8.38215 5.95845 8.2897 6.05285 8.1341L6.05405 8.1321L6.0594 8.1233L6.08185 8.087C6.10185 8.0547 6.13195 8.0066 6.1713 7.9447C6.25005 7.82085 6.36585 7.64195 6.51265 7.42405C6.80665 6.9877 7.2234 6.39745 7.7148 5.78035C8.20715 5.162 8.7684 4.52451 9.3508 3.98942C9.7394 3.63241 10.1249 3.33276 10.4944 3.11388C10.7736 3.58027 11.0081 4.13838 11.1425 4.8004C11.213 5.14795 11.25 5.50735 11.25 5.875C11.25 8.84355 8.84355 11.25 5.875 11.25Z" fill="#059669"/>
</svg>
