<svg width="20" height="20" viewBox="0 0 20 20" fill="none" xmlns="http://www.w3.org/2000/svg">
<path d="M18.9583 10.0003C18.9583 14.9479 14.9475 18.9587 9.99992 18.9587C5.05234 18.9587 1.04159 14.9479 1.04159 10.0003C1.04159 5.05278 5.05234 1.04199 9.99992 1.04199C14.9475 1.04199 18.9583 5.05278 18.9583 10.0003ZM6.45825 7.08366C6.45825 6.62343 6.08517 6.25033 5.62492 6.25033C5.16475 6.25043 4.79159 6.62348 4.79159 7.08366L4.79159 12.917C4.79159 13.3772 5.16475 13.7502 5.62492 13.7503C6.08517 13.7503 6.45825 13.3772 6.45825 12.917L6.45825 7.08366ZM14.9641 10.5895C15.2692 10.2844 15.288 9.80191 15.0211 9.47458L14.9641 9.41116L12.0474 6.49447C11.722 6.16913 11.1945 6.16906 10.8691 6.49447C10.5438 6.81988 10.5438 7.34744 10.8691 7.67285L12.3632 9.16699L8.54159 9.16699C8.08142 9.16708 7.70825 9.54016 7.70825 10.0003C7.70825 10.4605 8.08142 10.8336 8.54159 10.8337L12.3632 10.8337L10.8691 12.3278L10.8121 12.3912C10.5453 12.7186 10.5641 13.2011 10.8691 13.5062C11.1741 13.8112 11.6567 13.83 11.984 13.5632L12.0474 13.5062L14.9641 10.5895Z" fill="#374151"/>
</svg>
