<svg width="20" height="20" viewBox="0 0 20 20" fill="none" xmlns="http://www.w3.org/2000/svg">
<path d="M20 10C20 15.5228 15.5228 20 10 20C4.47715 20 0 15.5228 0 10C0 4.47715 4.47715 0 10 0C15.5228 0 20 4.47715 20 10Z" fill="#6B7280"/>
<path fill-rule="evenodd" clip-rule="evenodd" d="M6.29293 6.29286C6.68348 5.90235 7.31664 5.90239 7.70714 6.29293L10 8.58601L12.2929 6.29293C12.6834 5.90239 13.3165 5.90235 13.7071 6.29286C14.0976 6.68336 14.0976 7.31652 13.7071 7.70707L11.4141 10.0003L13.7065 12.2929C14.097 12.6835 14.097 13.3166 13.7064 13.7071C13.3159 14.0976 12.6827 14.0976 12.2922 13.7071L10 11.4146L7.7078 13.7071C7.31728 14.0976 6.68412 14.0976 6.29357 13.7071C5.90303 13.3166 5.90299 12.6835 6.2935 12.2929L8.58591 10.0003L6.29286 7.70707C5.90235 7.31652 5.90239 6.68336 6.29293 6.29286Z" fill="white"/>
</svg>
