<svg width="20" height="20" viewBox="0 0 20 20" fill="none" xmlns="http://www.w3.org/2000/svg">
<path d="M1.04175 9.99968C1.04175 5.05209 5.05253 1.04134 10.0001 1.04134C14.9477 1.04134 18.9584 5.05209 18.9584 9.99967C18.9584 14.9472 14.9477 18.958 10.0001 18.958C5.05253 18.958 1.04175 14.9472 1.04175 9.99968ZM13.5417 12.9163C13.5417 13.3766 13.9148 13.7497 14.3751 13.7497C14.8353 13.7497 15.2084 13.3766 15.2084 12.9163L15.2084 7.08301C15.2084 6.62276 14.8353 6.24968 14.3751 6.24968C13.9148 6.24968 13.5417 6.62276 13.5417 7.08301L13.5417 12.9163ZM4.79175 9.99968C4.79175 10.4599 5.16485 10.833 5.62508 10.833L9.44667 10.833L7.95256 12.3271L7.89559 12.3906C7.62863 12.7179 7.64746 13.2004 7.95256 13.5055C8.25765 13.8106 8.74017 13.8295 9.0675 13.5625L9.13092 13.5055L12.0476 10.5888C12.2039 10.4326 12.2917 10.2207 12.2917 9.99968C12.2917 9.77868 12.2039 9.56676 12.0476 9.41051L9.13092 6.49384C8.8055 6.16834 8.27799 6.16834 7.95256 6.49384C7.62711 6.81926 7.62711 7.34676 7.95256 7.67218L9.44667 9.16634L5.62508 9.16634C5.16485 9.16634 4.79175 9.53943 4.79175 9.99968Z" fill="#374151"/>
</svg>
