<svg width="32" height="32" viewBox="0 0 32 32" fill="none" xmlns="http://www.w3.org/2000/svg">
<path d="M16 32C13.7935 32 11.7229 31.5817 9.78823 30.7451C7.85359 29.919 6.15425 28.7739 4.6902 27.3098C3.22614 25.8353 2.07582 24.1359 1.23922 22.2118C0.413072 20.2771 0 18.2065 0 16C0 13.7935 0.413072 11.7229 1.23922 9.78823C2.07582 7.85359 3.22614 6.15425 4.6902 4.6902C6.15425 3.22614 7.85359 2.08105 9.78823 1.2549C11.7229 0.418301 13.7935 0 16 0C18.2065 0 20.2771 0.418301 22.2118 1.2549C24.1464 2.08105 25.8458 3.22614 27.3098 4.6902C28.7739 6.15425 29.919 7.85359 30.7451 9.78823C31.5817 11.7229 32 13.7935 32 16C32 18.2065 31.5817 20.2771 30.7451 22.2118C29.919 24.1359 28.7739 25.8353 27.3098 27.3098C25.8458 28.7739 24.1464 29.919 22.2118 30.7451C20.2771 31.5817 18.2065 32 16 32ZM7.13725 21.3804C7.13725 21.6523 7.23137 21.8876 7.41961 22.0863C7.6183 22.2745 7.85359 22.3686 8.12549 22.3686H9.01961C9.30196 22.3686 9.53725 22.2745 9.72549 22.0863C9.92418 21.8876 10.0235 21.6523 10.0235 21.3804V20.1412C10.8497 20.183 11.8118 20.2196 12.9098 20.251C14.0078 20.2824 15.0431 20.298 16.0157 20.298C16.9778 20.298 18.0026 20.2824 19.0902 20.251C20.1882 20.2196 21.1556 20.183 21.9922 20.1412V21.3804C21.9922 21.6523 22.0863 21.8876 22.2745 22.0863C22.4732 22.2745 22.7085 22.3686 22.9804 22.3686H23.8745C24.1569 22.3686 24.3922 22.2745 24.5804 22.0863C24.7791 21.8876 24.8784 21.6523 24.8784 21.3804V17.0667C24.8784 16.4392 24.8052 15.9163 24.6588 15.498C24.5124 15.0797 24.2667 14.651 23.9216 14.2118L23.2941 13.3804C23.1477 12.7007 22.9699 12.0471 22.7608 11.4196C22.5621 10.7922 22.3948 10.3425 22.2588 10.0706C22.0601 9.64183 21.7725 9.30719 21.3961 9.06667C21.0196 8.81569 20.5856 8.65882 20.0941 8.59608C19.8327 8.56471 19.3255 8.53856 18.5725 8.51765C17.8301 8.49673 16.9778 8.48627 16.0157 8.48627C15.0431 8.48627 14.1804 8.49673 13.4275 8.51765C12.6745 8.53856 12.1725 8.56471 11.9216 8.59608C11.4196 8.64837 10.9804 8.8 10.6039 9.05098C10.2379 9.30196 9.95555 9.64183 9.75686 10.0706C9.62091 10.3425 9.44837 10.7922 9.23922 11.4196C9.04052 12.0471 8.8732 12.7007 8.73726 13.3804L8.09412 14.2118C7.73856 14.651 7.48758 15.0797 7.34118 15.498C7.20523 15.9163 7.13725 16.4392 7.13725 17.0667V21.3804ZM10.651 12.6902C10.7346 12.2928 10.8444 11.8797 10.9804 11.451C11.1268 11.0222 11.2575 10.7085 11.3725 10.5098C11.4771 10.3425 11.5817 10.2222 11.6863 10.149C11.8013 10.0654 11.9582 10.0131 12.1569 9.99216C12.4288 9.95033 12.8732 9.91895 13.4902 9.89804C14.1072 9.87712 14.949 9.86667 16.0157 9.86667C17.0719 9.86667 17.9085 9.87712 18.5255 9.89804C19.1425 9.9085 19.5817 9.93987 19.8431 9.99216C20.0418 10.0131 20.1987 10.0654 20.3137 10.149C20.4288 10.2222 20.5386 10.3425 20.6431 10.5098C20.7582 10.698 20.8837 11.0118 21.0196 11.451C21.166 11.8797 21.281 12.2928 21.3647 12.6902C21.4379 12.9203 21.3333 13.0248 21.051 13.0039C20.4758 12.9621 19.8065 12.9307 19.0431 12.9098C18.2797 12.8784 17.2706 12.8627 16.0157 12.8627C14.7503 12.8627 13.7359 12.8784 12.9725 12.9098C12.2092 12.9307 11.5399 12.9621 10.9647 13.0039C10.7033 13.0248 10.5987 12.9203 10.651 12.6902ZM9.38039 17.0824C9.38039 16.7373 9.49542 16.4549 9.72549 16.2353C9.96601 16.0052 10.2588 15.8902 10.6039 15.8902C10.9386 15.8902 11.2209 16.0052 11.451 16.2353C11.681 16.4549 11.7961 16.7373 11.7961 17.0824C11.7961 17.417 11.681 17.7046 11.451 17.9451C11.2209 18.1752 10.9386 18.2902 10.6039 18.2902C10.2588 18.2902 9.96601 18.1752 9.72549 17.9451C9.49542 17.7046 9.38039 17.417 9.38039 17.0824ZM13.1608 17.1294C13.1608 16.8784 13.2392 16.6745 13.3961 16.5176C13.5634 16.3503 13.7725 16.2667 14.0235 16.2667H17.9765C18.2379 16.2667 18.4471 16.3503 18.6039 16.5176C18.7712 16.6745 18.8549 16.8784 18.8549 17.1294C18.8549 17.3909 18.7712 17.6052 18.6039 17.7725C18.4471 17.9294 18.2379 18.0078 17.9765 18.0078H14.0235C13.7725 18.0078 13.5634 17.9294 13.3961 17.7725C13.2392 17.6052 13.1608 17.3909 13.1608 17.1294ZM20.2039 17.0824C20.2039 16.7373 20.319 16.4549 20.549 16.2353C20.7895 16.0052 21.0771 15.8902 21.4118 15.8902C21.7569 15.8902 22.0444 16.0052 22.2745 16.2353C22.5046 16.4549 22.6196 16.7373 22.6196 17.0824C22.6196 17.417 22.5046 17.7046 22.2745 17.9451C22.0444 18.1752 21.7569 18.2902 21.4118 18.2902C21.0771 18.2902 20.7895 18.1752 20.549 17.9451C20.319 17.7046 20.2039 17.417 20.2039 17.0824Z" fill="#6B7280"/>
</svg>
