<svg width="32" height="32" viewBox="0 0 32 32" fill="none" xmlns="http://www.w3.org/2000/svg">
<path fill-rule="evenodd" clip-rule="evenodd" d="M8.33325 11.9993C8.33325 6.2924 12.9597 1.66602 18.6666 1.66602C24.3735 1.66602 28.9999 6.2924 28.9999 11.9993C28.9999 14.7347 27.9371 17.2219 26.2018 19.0703C24.7329 17.7789 22.6397 17.2901 20.665 17.9484L17.0433 19.1556C15.9187 18.1468 14.3882 17.4995 12.6666 17.4995H12.1039L10.046 16.3676C9.74896 16.2041 9.439 16.0684 9.12 15.9612C8.61308 14.7411 8.33325 13.4029 8.33325 11.9993ZM19.6666 5.33268C19.6666 4.7804 19.2189 4.33268 18.6666 4.33268C18.1143 4.33268 17.6666 4.7804 17.6666 5.33268V5.77747C17.1143 5.90347 16.6057 6.13332 16.181 6.4518C15.509 6.9558 14.9999 7.7284 14.9999 8.66602C14.9999 9.60363 15.509 10.3762 16.181 10.8802C16.8527 11.384 17.7347 11.666 18.6666 11.666C19.2075 11.666 19.6587 11.8317 19.9522 12.0518C20.2454 12.2717 20.3333 12.4991 20.3333 12.666C20.3333 12.833 20.2454 13.0604 19.9522 13.2802C19.6587 13.5003 19.2075 13.666 18.6666 13.666C17.7754 13.666 17.2126 13.2381 17.0562 12.9064C16.8209 12.4068 16.225 12.1927 15.7254 12.4281C15.2258 12.6635 15.0117 13.2594 15.2471 13.7589C15.687 14.6923 16.615 15.3124 17.6666 15.5533V15.9993C17.6666 16.5516 18.1143 16.9993 18.6666 16.9993C19.2189 16.9993 19.6666 16.5516 19.6666 15.9993V15.5545C20.2189 15.4285 20.7275 15.1987 21.1522 14.8803C21.8242 14.3763 22.3333 13.6036 22.3333 12.666C22.3333 11.7284 21.8242 10.9558 21.1522 10.4518C20.4805 9.94803 19.5985 9.66602 18.6666 9.66602C18.1257 9.66602 17.6745 9.50032 17.381 9.28023C17.0878 9.06038 16.9999 8.83298 16.9999 8.66602C16.9999 8.49906 17.0878 8.27166 17.381 8.0518C17.6745 7.83171 18.1257 7.66602 18.6666 7.66602C19.5578 7.66602 20.1206 8.09398 20.277 8.42564C20.5123 8.92523 21.1082 9.13938 21.6078 8.90394C22.1074 8.6685 22.3215 8.07264 22.0861 7.57306C21.6462 6.63971 20.7182 6.01955 19.6666 5.7787V5.33268Z" fill="url(#paint0_linear_2095_17357)"/>
<path d="M4 17.666C3.44772 17.666 3 18.1137 3 18.666V26.6925C3 27.14 3.29724 27.5331 3.72779 27.6548L12.0659 30.0136C12.9455 30.2624 13.8863 30.1737 14.7039 29.7649L24.8175 24.7082C25.8265 24.2036 26.2804 23.01 25.8613 21.9626C25.1404 20.16 23.1392 19.2319 21.2975 19.8457L17.6937 21.0471C17.9011 21.4677 18.0205 21.9088 18.0205 22.3447C18.0205 22.6303 17.8387 22.8842 17.5683 22.9759L12.6496 24.6465C12.2362 24.7869 11.7882 24.7881 11.374 24.6501L7.7996 23.4587C7.45031 23.3421 7.26153 22.9647 7.37796 22.6153C7.49439 22.266 7.87193 22.0773 8.22124 22.1937L11.7956 23.3852C11.9337 23.4312 12.083 23.4308 12.2208 23.384L16.6051 21.8949C16.5405 21.7044 16.4371 21.4979 16.2911 21.2861C15.8969 20.7491 15.3547 20.2876 14.7059 19.9683C14.3501 19.7951 13.9561 19.6599 13.5317 19.5795C13.5235 19.5779 13.5153 19.5763 13.5072 19.5744C13.237 19.5255 12.9562 19.4995 12.6667 19.4995H11.5902L9.08215 18.12C8.54076 17.8221 7.93288 17.666 7.31499 17.666H4Z" fill="url(#paint1_linear_2095_17357)"/>
<defs>
<linearGradient id="paint0_linear_2095_17357" x1="18.6666" y1="19.1556" x2="18.6666" y2="1.66602" gradientUnits="userSpaceOnUse">
<stop stop-color="#F6F7F9"/>
<stop offset="0.490334" stop-color="#E8F5FA"/>
<stop offset="1" stop-color="#DBE2F2"/>
</linearGradient>
<linearGradient id="paint1_linear_2095_17357" x1="14.5085" y1="30.1521" x2="14.5085" y2="17.666" gradientUnits="userSpaceOnUse">
<stop stop-color="#F6F7F9"/>
<stop offset="0.490334" stop-color="#E8F5FA"/>
<stop offset="1" stop-color="#DBE2F2"/>
</linearGradient>
</defs>
</svg>
