<svg width="14" height="14" viewBox="0 0 14 14" fill="none" xmlns="http://www.w3.org/2000/svg">
<path d="M9.04158 6.12516C9.04158 7.25275 8.1275 8.16683 6.99992 8.16683C5.87234 8.16683 4.95825 7.25275 4.95825 6.12516C4.95825 4.99758 5.87234 4.0835 6.99992 4.0835C8.1275 4.0835 9.04158 4.99758 9.04158 6.12516Z" fill="#374151"/>
<path d="M7.00008 1.1665C4.26167 1.1665 2.04175 3.27692 2.04175 5.88025C2.04175 8.71554 4.79459 10.1319 6.48045 12.1367C6.74744 12.4541 7.26439 12.4625 7.53739 12.1502C9.25437 10.1857 11.9584 8.66088 11.9584 5.88025C11.9584 3.27692 9.73848 1.1665 7.00008 1.1665Z" stroke="#374151" stroke-width="2" stroke-linejoin="round"/>
</svg>
