<svg width="32" height="32" viewBox="0 0 32 32" fill="none" xmlns="http://www.w3.org/2000/svg">
<path d="M22 20.6667V14.6667C22 11.353 19.3137 8.66669 16 8.66669C12.6863 8.66669 10 11.353 10 14.6667V20.6667" stroke="#374151" stroke-width="2" stroke-linecap="round" stroke-linejoin="round"/>
<path d="M18 16.6667V14.6667C18 13.5622 17.1045 12.6667 16 12.6667C14.8955 12.6667 14 13.5622 14 14.6667V22M18 20.6667V23.3334" stroke="#374151" stroke-width="2" stroke-linecap="round" stroke-linejoin="round"/>
<path d="M20.0002 3.33331H26.0002C27.473 3.33331 28.6668 4.52722 28.6668 5.99998V12M12.0002 3.33331H6.00016C4.5274 3.33331 3.3335 4.52722 3.3335 5.99998V12M12.0002 28.6666H6.00016C4.5274 28.6666 3.3335 27.4728 3.3335 26V20M20.0002 28.6666H26.0002C27.473 28.6666 28.6668 27.4728 28.6668 26V20" stroke="#374151" stroke-width="2" stroke-linecap="round" stroke-linejoin="round"/>
</svg>
