<svg width="32" height="32" viewBox="0 0 32 32" fill="none" xmlns="http://www.w3.org/2000/svg">
<path d="M19 12.6667C19 10.4916 17.5175 9.00026 16 9C14.4821 9 13 10.4915 13 12.6667C13 14.0934 13.6639 15.2763 14.5586 15.8802C14.8338 16.066 14.9997 16.3763 15 16.7083V18.6654C15 19.1094 14.7072 19.5001 14.2812 19.625L11.0924 20.5586C10.603 20.702 10.2104 21.0603 10.0195 21.5247L9.95048 21.7305L9.63277 22.9232C9.49092 23.4568 8.94378 23.7745 8.41011 23.6328C7.87646 23.491 7.55879 22.9438 7.70048 22.4102L8.01689 21.2161L8.0859 20.987C8.46663 19.857 9.37744 18.9772 10.5312 18.6393L13 17.9154V17.1992C11.7622 16.1472 11 14.4865 11 12.6667C11 9.68721 13.0994 7 16 7C18.9002 7.00025 21 9.68735 21 12.6667C21 14.4863 20.2374 16.1471 19 17.1992V17.9128L21.4856 18.6302H21.4843C22.7545 18.9962 23.7301 20.0175 24.0364 21.3034L24.3059 22.4349L24.3242 22.5352C24.3915 23.0377 24.0689 23.5193 23.5651 23.6393C23.0612 23.7593 22.5558 23.475 22.3893 22.9961L22.3606 22.8984L22.0911 21.7669C21.9519 21.1825 21.5082 20.7184 20.9309 20.5521V20.5508L17.7226 19.6263C17.2949 19.5028 17.0003 19.1118 17 18.6667V16.7096C16.9999 16.3772 17.1646 16.0662 17.4401 15.8802C18.3348 15.2763 19 14.0935 19 12.6667Z" fill="#374151"/>
<path d="M2.33325 25.9999V19.9999C2.33325 19.4476 2.78097 18.9999 3.33325 18.9999C3.88554 18.9999 4.33325 19.4476 4.33325 19.9999V25.9999C4.33325 26.9204 5.07943 27.6666 5.99992 27.6666H11.9999C12.5522 27.6666 12.9999 28.1143 12.9999 28.6666C12.9999 29.2189 12.5522 29.6666 11.9999 29.6666H5.99992C3.97488 29.6666 2.33325 28.025 2.33325 25.9999ZM27.6666 25.9999V19.9999C27.6666 19.4476 28.1143 18.9999 28.6666 18.9999C29.2189 18.9999 29.6666 19.4476 29.6666 19.9999V25.9999C29.6666 28.025 28.025 29.6666 25.9999 29.6666H19.9999C19.4476 29.6666 18.9999 29.2189 18.9999 28.6666C18.9999 28.1143 19.4476 27.6666 19.9999 27.6666H25.9999C26.9204 27.6666 27.6666 26.9204 27.6666 25.9999ZM2.33325 11.9999V5.99992C2.33325 3.97487 3.97487 2.33325 5.99992 2.33325H11.9999C12.5522 2.33325 12.9999 2.78097 12.9999 3.33325C12.9999 3.88554 12.5522 4.33325 11.9999 4.33325H5.99992C5.07944 4.33325 4.33325 5.07944 4.33325 5.99992V11.9999C4.33325 12.5522 3.88554 12.9999 3.33325 12.9999C2.78097 12.9999 2.33325 12.5522 2.33325 11.9999ZM27.6666 11.9999V5.99992C27.6666 5.07943 26.9204 4.33325 25.9999 4.33325H19.9999C19.4476 4.33325 18.9999 3.88554 18.9999 3.33325C18.9999 2.78097 19.4476 2.33325 19.9999 2.33325H25.9999C28.025 2.33325 29.6666 3.97488 29.6666 5.99992V11.9999C29.6666 12.5522 29.2189 12.9999 28.6666 12.9999C28.1143 12.9999 27.6666 12.5522 27.6666 11.9999Z" fill="#374151"/>
</svg>
