<svg width="80" height="80" viewBox="0 0 80 80" fill="none" xmlns="http://www.w3.org/2000/svg">
<path d="M40 0C62.0914 0 80 17.9086 80 40C80 62.0914 62.0914 80 40 80C17.9086 80 0 62.0914 0 40C0 17.9086 17.9086 0 40 0ZM40 5C20.67 5 5 20.67 5 40C5 59.33 20.67 75 40 75C59.33 75 75 59.33 75 40C75 20.67 59.33 5 40 5ZM32.582 55.3682C33.1296 58.8676 34.677 60.9075 36.5957 61.8203C38.5592 62.7544 41.3085 62.6983 44.584 61.1221C45.4157 60.722 46.4029 61.0961 46.7891 61.958C47.1752 62.8199 46.814 63.8429 45.9824 64.2432C42.1389 66.0928 38.331 66.4323 35.2109 64.9482C32.0462 63.4428 29.9825 60.2506 29.3047 55.9189L32.582 55.3682ZM45.2832 47.8213H36.9814V44.6934H42.2637V37.6533H45.2832V47.8213ZM21.8867 26.7031C23.554 26.7031 24.9053 28.1041 24.9053 29.832C24.9052 31.5599 23.554 32.9609 21.8867 32.9609C20.2195 32.9609 18.8682 31.5599 18.8682 29.832C18.8682 28.1042 20.2195 26.7032 21.8867 26.7031ZM58.1133 26.7031C59.7805 26.7032 61.1318 28.1042 61.1318 29.832C61.1318 31.5598 59.7805 32.9609 58.1133 32.9609C56.446 32.9609 55.0948 31.5599 55.0947 29.832C55.0947 28.1041 56.446 26.7031 58.1133 26.7031Z" fill="url(#paint0_linear_273_4084)"/>
<defs>
<linearGradient id="paint0_linear_273_4084" x1="-3.55396e-08" y1="40.8" x2="90.873" y2="39.5983" gradientUnits="userSpaceOnUse">
<stop stop-color="#3FD0D8"/>
<stop offset="1" stop-color="#0336A7"/>
</linearGradient>
</defs>
</svg>
