<svg width="81" height="80" viewBox="0 0 81 80" fill="none" xmlns="http://www.w3.org/2000/svg">
<path d="M3.05097 25.5649C1.35032 25.5649 0.5 24.6862 0.5 22.9289V12.1757C0.5 8.1311 1.53154 5.09066 3.59462 3.05439C5.65769 1.01813 8.72443 0 12.7948 0H23.5423C25.2987 0 26.1769 0.850767 26.1769 2.5523C26.1769 4.28173 25.2987 5.14644 23.5423 5.14644H12.9203C10.5505 5.14644 8.73837 5.76011 7.48379 6.98745C6.2571 8.21478 5.64375 10.0418 5.64375 12.4686V22.9289C5.64375 24.6862 4.77949 25.5649 3.05097 25.5649ZM77.9072 25.5649C76.2066 25.5649 75.3562 24.6862 75.3562 22.9289V12.4686C75.3562 10.0418 74.715 8.21478 73.4326 6.98745C72.1501 5.76011 70.3519 5.14644 68.0379 5.14644H57.4577C55.7013 5.14644 54.8231 4.28173 54.8231 2.5523C54.8231 0.850767 55.7013 0 57.4577 0H68.1634C72.2616 0 75.3423 1.03208 77.4054 3.09623C79.4685 5.1325 80.5 8.15899 80.5 12.1757V22.9289C80.5 24.6862 79.6357 25.5649 77.9072 25.5649ZM12.7948 80C8.72443 80 5.65769 78.9679 3.59462 76.9038C1.53154 74.8675 0.5 71.8271 0.5 67.7824V57.0711C0.5 55.3138 1.35032 54.4351 3.05097 54.4351C4.77949 54.4351 5.64375 55.3138 5.64375 57.0711V67.5314C5.64375 69.9582 6.2571 71.7852 7.48379 73.0126C8.73837 74.2399 10.5505 74.8536 12.9203 74.8536H23.5423C25.2987 74.8536 26.1769 75.7183 26.1769 77.4477C26.1769 79.1492 25.2987 80 23.5423 80H12.7948ZM57.4577 80C55.7013 80 54.8231 79.1492 54.8231 77.4477C54.8231 75.7183 55.7013 74.8536 57.4577 74.8536H68.0379C70.3519 74.8536 72.1501 74.2399 73.4326 73.0126C74.715 71.7852 75.3562 69.9582 75.3562 67.5314V57.0711C75.3562 55.3138 76.2066 54.4351 77.9072 54.4351C79.6357 54.4351 80.5 55.3138 80.5 57.0711V67.7824C80.5 71.8271 79.4685 74.8675 77.4054 76.9038C75.3423 78.9679 72.2616 80 68.1634 80H57.4577ZM24.9642 36.6527C24.1557 36.6527 23.4866 36.4017 22.9569 35.8996C22.455 35.3975 22.2041 34.7141 22.2041 33.8494V28.2008C22.2041 27.364 22.455 26.6946 22.9569 26.1925C23.4866 25.6625 24.1557 25.3975 24.9642 25.3975C25.7727 25.3975 26.4418 25.6625 26.9715 26.1925C27.5012 26.6946 27.7661 27.364 27.7661 28.2008V33.8494C27.7661 34.7141 27.5012 35.3975 26.9715 35.8996C26.4418 36.4017 25.7727 36.6527 24.9642 36.6527ZM37.0917 46.4435C36.2275 46.4435 35.5584 46.2483 35.0844 45.8577C34.6105 45.4393 34.3735 44.8815 34.3735 44.1841C34.3735 43.5704 34.5687 43.0683 34.959 42.6778C35.3772 42.2594 35.8929 42.0502 36.5063 42.0502H37.9281C38.2348 42.0502 38.4997 41.9526 38.7227 41.7573C38.9736 41.5621 39.0991 41.2692 39.0991 40.8787V27.4895C39.0991 26.8201 39.2942 26.304 39.6845 25.9414C40.0748 25.5509 40.5906 25.3556 41.2318 25.3556C41.9009 25.3556 42.4306 25.5509 42.821 25.9414C43.2113 26.304 43.4064 26.8201 43.4064 27.4895V40.5021C43.4064 42.4547 42.9046 43.9331 41.9009 44.9372C40.8973 45.9414 39.4197 46.4435 37.4681 46.4435C37.4124 46.4435 37.3427 46.4435 37.259 46.4435C37.2033 46.4435 37.1475 46.4435 37.0917 46.4435ZM55.7849 36.6527C54.9485 36.6527 54.2794 36.4017 53.7776 35.8996C53.2757 35.3975 53.0248 34.7141 53.0248 33.8494V28.2008C53.0248 27.364 53.2757 26.6946 53.7776 26.1925C54.2794 25.6625 54.9485 25.3975 55.7849 25.3975C56.5934 25.3975 57.2486 25.6625 57.7504 26.1925C58.2801 26.6946 58.545 27.364 58.545 28.2008V33.8494C58.545 34.7141 58.2801 35.3975 57.7504 35.8996C57.2486 36.4017 56.5934 36.6527 55.7849 36.6527ZM40.1864 59.9582C37.7608 59.9582 35.3632 59.484 32.9935 58.5356C30.6237 57.5593 28.6164 56.1506 26.9715 54.3096C26.7485 54.0865 26.5673 53.8494 26.4279 53.5983C26.3163 53.3194 26.2606 53.0265 26.2606 52.7197C26.2606 52.0781 26.4697 51.5621 26.8879 51.1715C27.3061 50.781 27.8218 50.5858 28.4352 50.5858C28.8255 50.5858 29.1461 50.6695 29.397 50.8368C29.6758 51.0042 29.9685 51.2273 30.2752 51.5063C31.5019 52.7615 33.0074 53.7657 34.7917 54.5188C36.576 55.272 38.3742 55.6485 40.1864 55.6485C42.11 55.6485 43.9501 55.272 45.7065 54.5188C47.4908 53.7378 48.9823 52.7336 50.1811 51.5063C50.7666 50.8926 51.366 50.5858 51.9794 50.5858C52.5648 50.5858 53.0667 50.781 53.4848 51.1715C53.903 51.5621 54.1121 52.0781 54.1121 52.7197C54.1121 53.0823 54.0564 53.4031 53.9449 53.682C53.8333 53.9331 53.68 54.1562 53.4848 54.3515C51.7006 56.1088 49.6375 57.4895 47.2956 58.4937C44.9816 59.47 42.6119 59.9582 40.1864 59.9582Z" fill="url(#paint0_linear_231_3742)"/>
<defs>
<linearGradient id="paint0_linear_231_3742" x1="0.5" y1="40.8" x2="91.373" y2="39.5983" gradientUnits="userSpaceOnUse">
<stop stop-color="#3FD0D8"/>
<stop offset="1" stop-color="#0336A7"/>
</linearGradient>
</defs>
</svg>
