<svg width="22" height="22" viewBox="0 0 22 22" fill="none" xmlns="http://www.w3.org/2000/svg">
<path fill-rule="evenodd" clip-rule="evenodd" d="M10.75 21.5C4.81294 21.5 0 16.6871 0 10.75C0 4.81294 4.81294 0 10.75 0C12.7068 0 14.5436 0.52351 16.1255 1.43862C16.7576 1.80422 17.7973 2.49578 18.7968 3.61155C17.9475 4.13511 17.1232 4.79427 16.3485 5.50607C15.0813 6.67028 13.8876 8.03067 12.865 9.3148C11.8405 10.6015 10.9754 11.8272 10.3667 12.7305L10.2789 12.8612C9.6849 12.0357 9.0687 11.4613 8.52591 11.0665C8.12071 10.7718 7.76199 10.5813 7.49231 10.4615C7.35755 10.4016 7.24507 10.3593 7.16014 10.3305C7.11767 10.3162 7.08206 10.3051 7.05396 10.2969C7.03991 10.2928 7.02773 10.2894 7.01751 10.2866L7.00365 10.2829L6.99783 10.2814L6.99521 10.2807L6.99397 10.2804C6.99397 10.2804 7.01751 10.2866 6.99277 10.2801C6.45698 10.1462 5.91404 10.4719 5.78009 11.0077C5.64733 11.5388 5.9662 12.0769 6.49357 12.2168C6.49701 12.2178 6.50528 12.2203 6.51806 12.2247C6.54837 12.235 6.60386 12.2552 6.68004 12.2891C6.83223 12.3567 7.06727 12.4787 7.34956 12.684C7.90935 13.0911 8.67848 13.8428 9.3558 15.1975C9.5187 15.5232 9.8457 15.7346 10.2095 15.7494C10.5733 15.7643 10.9169 15.5794 11.1057 15.2682L11.1081 15.2642L11.1188 15.2466L11.1637 15.174C11.2037 15.1094 11.2639 15.0132 11.3426 14.8894C11.5001 14.6417 11.7317 14.2839 12.0253 13.8481C12.6133 12.9754 13.4468 11.7949 14.4296 10.5607C15.4143 9.324 16.5368 8.04902 17.7016 6.97885C18.4788 6.26481 19.2497 5.66552 19.9888 5.22777C20.5472 6.16053 21.0162 7.27676 21.285 8.6008C21.4261 9.2959 21.5 10.0147 21.5 10.75C21.5 16.6871 16.6871 21.5 10.75 21.5Z" fill="#059669"/>
</svg>
