<svg width="48" height="48" viewBox="0 0 48 48" fill="none" xmlns="http://www.w3.org/2000/svg">
<g clip-path="url(#clip0_5531_27046)">
<path d="M24.0099 12.5294C24.4582 12.5294 24.8405 12.6863 25.1569 13C25.4734 13.3137 25.6316 13.6928 25.6316 14.1373V27.6667L23.8319 22.1961L30.3384 30.9216C30.6548 31.3399 30.7933 31.7712 30.7537 32.2157C30.7142 32.6471 30.5098 32.9935 30.1406 33.2549C29.7319 33.5425 29.3034 33.6536 28.8552 33.5882C28.4069 33.5098 28.0048 33.2418 27.6488 32.7843L22.8628 26.5294C22.6914 26.3072 22.5662 26.0915 22.4871 25.8824C22.408 25.6732 22.3684 25.451 22.3684 25.2157V14.1373C22.3684 13.6928 22.5266 13.3137 22.8431 13C23.1595 12.6863 23.5484 12.5294 24.0099 12.5294ZM24.0099 4C26.2249 4 28.341 4.34641 30.3582 5.03922C32.3754 5.73203 34.2278 6.70588 35.9154 7.96078C37.6162 9.21569 39.0863 10.6863 40.3256 12.3725C40.6552 12.8039 40.7805 13.2549 40.7014 13.7255C40.6223 14.1961 40.3784 14.549 39.9696 14.7843C39.5609 15.0327 39.139 15.1046 38.7039 15C38.282 14.8954 37.9195 14.6405 37.6162 14.2353C36.601 12.8366 35.3946 11.6275 33.9971 10.6078C32.5995 9.57516 31.0504 8.77778 29.3496 8.21569C27.662 7.64052 25.8821 7.35294 24.0099 7.35294C22.0059 7.35294 20.1073 7.6732 18.3142 8.31373C16.5211 8.95425 14.8994 9.85621 13.4492 11.0196C11.9989 12.1699 10.7727 13.5294 9.7707 15.098C8.76869 16.6536 8.05673 18.3595 7.63483 20.2157H10.4827C10.9441 20.2157 11.2935 20.3137 11.5308 20.5098C11.7681 20.6928 11.8802 20.9412 11.867 21.2549C11.867 21.5556 11.7418 21.8889 11.4913 22.2549L7.0613 28.5098C6.74488 28.9542 6.37571 29.183 5.95381 29.1961C5.53191 29.1961 5.15615 28.9673 4.82654 28.5098L0.396574 22.2745C0.14607 21.9085 0.0142253 21.5686 0.00104088 21.2549C-0.0121436 20.9412 0.0999241 20.6928 0.337244 20.5098C0.574564 20.3137 0.930543 20.2157 1.40518 20.2157H4.21347C4.66174 17.9281 5.48576 15.8039 6.68555 13.8431C7.88533 11.8693 9.36858 10.1438 11.1353 8.66667C12.902 7.18954 14.8797 6.04575 17.0683 5.23529C19.2569 4.41176 21.5708 4 24.0099 4ZM24.0099 44C21.7949 44 19.6722 43.6471 17.6418 42.9412C15.6246 42.2484 13.7722 41.2745 12.0846 40.0196C10.397 38.7647 8.93349 37.3007 7.69416 35.6274C7.35136 35.1961 7.21952 34.7451 7.29862 34.2745C7.39091 33.8039 7.63483 33.4444 8.03036 33.1961C8.45226 32.9477 8.87416 32.8824 9.29606 33C9.73115 33.1046 10.1003 33.3595 10.4036 33.7647C11.4056 35.1503 12.6054 36.3595 14.0029 37.3922C15.4136 38.4248 16.9628 39.2222 18.6504 39.7843C20.338 40.3595 22.1245 40.6536 24.0099 40.6667C26.0139 40.6667 27.9125 40.3464 29.7056 39.7059C31.4986 39.0654 33.1203 38.1634 34.5706 37C36.0209 35.8366 37.2471 34.4706 38.2491 32.902C39.2511 31.3333 39.9696 29.6275 40.4047 27.7843H37.5371C37.0757 27.7843 36.7263 27.6928 36.4889 27.5098C36.2516 27.3137 36.133 27.0654 36.133 26.7647C36.1462 26.451 36.278 26.1111 36.5285 25.7451L40.9585 19.4902C41.2749 19.0458 41.6441 18.8235 42.066 18.8235C42.4879 18.8105 42.8636 19.0327 43.1932 19.4902L47.6034 25.7255C47.8671 26.0915 47.999 26.4314 47.999 26.7451C48.0121 27.0588 47.9001 27.3137 47.6628 27.5098C47.4254 27.6928 47.0695 27.7843 46.5948 27.7843H43.8063C43.358 30.0719 42.534 32.2026 41.3342 34.1765C40.1344 36.1373 38.6512 37.8497 36.8845 39.3137C35.1178 40.7908 33.1401 41.9412 30.9515 42.7647C28.7629 43.5882 26.449 44 24.0099 44Z" fill="url(#paint0_linear_5531_27046)"/>
</g>
<defs>
<linearGradient id="paint0_linear_5531_27046" x1="82.4789" y1="56.2034" x2="1.55657" y2="4.20787" gradientUnits="userSpaceOnUse">
<stop stop-color="#F59E0B"/>
<stop offset="1" stop-color="#DC2626"/>
</linearGradient>
<clipPath id="clip0_5531_27046">
<rect width="48" height="48" fill="white"/>
</clipPath>
</defs>
</svg>
