<svg width="24" height="24" viewBox="0 0 24 24" fill="none" xmlns="http://www.w3.org/2000/svg">
<path d="M11.9277 9.9873C15.1067 8.36086 19.0371 9.49658 20.8427 12.624L21.0087 12.9297C22.6352 16.1087 21.4995 20.039 18.372 21.8447C15.2445 23.6504 11.2728 22.6688 9.33293 19.6709L9.15129 19.374C7.28733 16.1456 8.39354 12.0173 11.622 10.1533L11.9277 9.9873ZM10.872 19.2461C12.4592 21.2677 15.3314 21.8683 17.622 20.5459C19.9128 19.2233 20.8285 16.4353 19.871 14.0498L10.872 19.2461ZM19.121 12.751C17.588 10.7995 14.8575 10.1728 12.6093 11.3232L12.372 11.4521C10.0816 12.7745 9.1653 15.5621 10.122 17.9473L19.121 12.751Z" fill="#374151"/>
<path d="M14.9579 1.77396C17.1643 0.618706 19.8848 1.43271 21.1278 3.63627L21.2206 3.80814C22.1374 5.59772 21.8285 7.73491 20.5644 9.17729L20.5107 9.23197C20.2325 9.49124 19.7979 9.50259 19.5058 9.24662C19.1943 8.9736 19.1625 8.49952 19.4355 8.18803L19.5956 7.99076C20.3017 7.04342 20.4656 5.73777 19.9442 4.61088L19.8212 4.3726C18.9699 2.86393 17.1319 2.32855 15.6513 3.10404L15.5097 3.18314L11.0702 5.80521L12.1454 7.61771L12.1806 7.68607C12.3404 8.03095 12.2167 8.44798 11.8827 8.64604C11.5487 8.84407 11.1233 8.75257 10.8974 8.44682L10.8544 8.38334L9.77823 6.56889L5.33975 9.19291C3.82594 10.0874 3.29446 12.0835 4.17862 13.6509L4.28214 13.8228C4.78519 14.601 5.56372 15.0877 6.40128 15.23L6.58194 15.2554L6.65811 15.2671C7.02964 15.3468 7.28746 15.6967 7.24503 16.0826C7.20256 16.4684 6.87493 16.7535 6.49503 16.7505L6.41788 16.7456L6.1503 16.7085C4.90662 16.4972 3.75875 15.7755 3.02335 14.6382L2.87198 14.3882C1.59438 12.1235 2.3457 9.22001 4.57608 7.90189L14.746 1.89213L14.9579 1.77396Z" fill="#374151"/>
</svg>
