<svg width="60" height="60" viewBox="0 0 60 60" fill="none" xmlns="http://www.w3.org/2000/svg">
    <g filter="url(#filter0_dd_1932_10332)">
        <circle cx="30" cy="28" r="26" fill="white"/>
    </g>
    <path d="M20.0117 29.6992C19.5664 29.6914 19.1953 29.5938 18.8984 29.4062C18.6094 29.2109 18.3945 28.9648 18.2539 28.668C18.1133 28.3633 18.0586 28.043 18.0898 27.707C18.1211 27.3633 18.2383 27.0469 18.4414 26.7578C18.6445 26.4609 18.9453 26.2227 19.3438 26.043L38.0938 17.4062C38.6328 17.1641 39.1289 17.0664 39.582 17.1133C40.0352 17.1523 40.4062 17.3125 40.6953 17.5938C40.9844 17.8672 41.1562 18.2266 41.2109 18.6719C41.2734 19.1094 41.1797 19.6016 40.9297 20.1484L32.3164 38.8281C32.1289 39.25 31.8828 39.5664 31.5781 39.7773C31.2734 39.9961 30.9492 40.1211 30.6055 40.1523C30.2617 40.1914 29.9375 40.1406 29.6328 40C29.3281 39.8594 29.082 39.6406 28.8945 39.3438C28.707 39.0547 28.6133 38.6953 28.6133 38.2656L28.5898 29.9102C28.5898 29.7852 28.5273 29.7227 28.4023 29.7227L20.0117 29.6992Z" fill="#374151"/>
    <defs>
        <filter id="filter0_dd_1932_10332" x="0" y="0" width="60" height="60" filterUnits="userSpaceOnUse" color-interpolation-filters="sRGB">
            <feFlood flood-opacity="0" result="BackgroundImageFix"/>
            <feColorMatrix in="SourceAlpha" type="matrix" values="0 0 0 0 0 0 0 0 0 0 0 0 0 0 0 0 0 0 127 0" result="hardAlpha"/>
            <feOffset dy="2"/>
            <feGaussianBlur stdDeviation="2"/>
            <feComposite in2="hardAlpha" operator="out"/>
            <feColorMatrix type="matrix" values="0 0 0 0 0 0 0 0 0 0 0 0 0 0 0 0 0 0 0.12 0"/>
            <feBlend mode="normal" in2="BackgroundImageFix" result="effect1_dropShadow_1932_10332"/>
            <feColorMatrix in="SourceAlpha" type="matrix" values="0 0 0 0 0 0 0 0 0 0 0 0 0 0 0 0 0 0 127 0" result="hardAlpha"/>
            <feOffset dy="1"/>
            <feGaussianBlur stdDeviation="1"/>
            <feComposite in2="hardAlpha" operator="out"/>
            <feColorMatrix type="matrix" values="0 0 0 0 0 0 0 0 0 0 0 0 0 0 0 0 0 0 0.2 0"/>
            <feBlend mode="normal" in2="effect1_dropShadow_1932_10332" result="effect2_dropShadow_1932_10332"/>
            <feBlend mode="normal" in="SourceGraphic" in2="effect2_dropShadow_1932_10332" result="shape"/>
        </filter>
    </defs>
</svg>
