<svg width="64" height="64" viewBox="0 0 64 64" fill="none" xmlns="http://www.w3.org/2000/svg">
<path d="M2.04077 20.4519C0.680258 20.4519 0 19.749 0 18.3431V9.74059C0 6.50488 0.825231 4.07252 2.47569 2.44351C4.12615 0.814505 6.57954 0 9.83586 0H18.4339C19.839 0 20.5416 0.680614 20.5416 2.04184C20.5416 3.42538 19.839 4.11716 18.4339 4.11716H9.93623C8.04043 4.11716 6.5907 4.60809 5.58704 5.58996C4.60568 6.57183 4.115 8.03347 4.115 9.9749V18.3431C4.115 19.749 3.42359 20.4519 2.04077 20.4519ZM61.9258 20.4519C60.5653 20.4519 59.885 19.749 59.885 18.3431V9.9749C59.885 8.03347 59.372 6.57183 58.3461 5.58996C57.3201 4.60809 55.8815 4.11716 54.0303 4.11716H45.5661C44.161 4.11716 43.4584 3.42538 43.4584 2.04184C43.4584 0.680614 44.161 0 45.5661 0H54.1307C57.4093 0 59.8738 0.825663 61.5243 2.47699C63.1748 4.106 64 6.5272 64 9.74059V18.3431C64 19.749 63.3086 20.4519 61.9258 20.4519ZM9.83586 64C6.57954 64 4.12615 63.1743 2.47569 61.523C0.825231 59.894 0 57.4616 0 54.2259V45.6569C0 44.251 0.680258 43.5481 2.04077 43.5481C3.42359 43.5481 4.115 44.251 4.115 45.6569V54.0251C4.115 55.9665 4.60568 57.4282 5.58704 58.41C6.5907 59.3919 8.04043 59.8828 9.93623 59.8828H18.4339C19.839 59.8828 20.5416 60.5746 20.5416 61.9582C20.5416 63.3194 19.839 64 18.4339 64H9.83586ZM45.5661 64C44.161 64 43.4584 63.3194 43.4584 61.9582C43.4584 60.5746 44.161 59.8828 45.5661 59.8828H54.0303C55.8815 59.8828 57.3201 59.3919 58.3461 58.41C59.372 57.4282 59.885 55.9665 59.885 54.0251V45.6569C59.885 44.251 60.5653 43.5481 61.9258 43.5481C63.3086 43.5481 64 44.251 64 45.6569V54.2259C64 57.4616 63.1748 59.894 61.5243 61.523C59.8738 63.1743 57.4093 64 54.1307 64H45.5661ZM13.884 34.3096C13.1033 34.3096 12.5457 34.0865 12.2112 33.6402C11.8989 33.1939 11.7986 32.6918 11.9101 32.1339C12.0439 31.576 12.4231 31.1632 13.0476 30.8954L45.5996 15.4644C46.3133 15.1297 46.9601 15.0739 47.54 15.2971C48.1199 15.4979 48.5102 15.8884 48.7109 16.4686C48.934 17.0265 48.8782 17.6625 48.5437 18.3766L33.2211 50.9791C32.9535 51.5593 32.5409 51.9275 31.9833 52.0837C31.448 52.2176 30.9462 52.1283 30.4778 51.8159C30.0317 51.4812 29.8087 50.901 29.8087 50.0753L29.7752 35.1464C29.7752 34.6109 29.5187 34.3431 29.0058 34.3431L13.884 34.3096Z" fill="url(#paint0_linear_1645_4074)"/>
<defs>
<linearGradient id="paint0_linear_1645_4074" x1="-3.31129e-08" y1="-30.2222" x2="64" y2="-30.2222" gradientUnits="userSpaceOnUse">
<stop stop-color="#3FD0D8"/>
<stop offset="1" stop-color="#0336A7"/>
</linearGradient>
</defs>
</svg>
