<svg width="16" height="16" viewBox="0 0 16 16" fill="none" xmlns="http://www.w3.org/2000/svg">
<path d="M13.6099 14.5C14.4696 14.5 15.1666 13.803 15.1666 12.9433C15.1666 12.7095 15.1139 12.4789 15.0129 12.2689L14.9667 12.1803L9.42899 2.33594C9.13852 1.81963 8.59232 1.5 7.99992 1.5C7.44452 1.5 6.92972 1.78095 6.62817 2.24153L6.57088 2.33594L1.03312 12.1803C0.902092 12.4133 0.833265 12.6761 0.833252 12.9433C0.833252 13.803 1.53023 14.5 2.38989 14.5H13.6099ZM7.99992 9.66667C7.63172 9.66667 7.33325 9.3682 7.33325 9V6C7.33325 5.63181 7.63172 5.33333 7.99992 5.33333C8.36812 5.33333 8.66658 5.63181 8.66658 6V9C8.66658 9.3682 8.36812 9.66667 7.99992 9.66667ZM7.99992 12.0065C7.63172 12.0065 7.33325 11.7081 7.33325 11.3399V11.3333C7.33325 10.9651 7.63172 10.6667 7.99992 10.6667C8.36812 10.6667 8.66658 10.9651 8.66658 11.3333V11.3399C8.66658 11.7081 8.36812 12.0065 7.99992 12.0065Z" fill="#EF4444"/>
</svg>
