<svg width="24" height="24" viewBox="0 0 24 24" fill="none" xmlns="http://www.w3.org/2000/svg">
<path d="M11.0564 20C9.64883 20 8.94506 19.5392 8.94506 18.6177C8.94506 18.0533 9.11742 17.4514 9.46212 16.8121C9.80682 16.1728 10.3038 15.5709 10.953 15.0065C11.6079 14.4363 12.3978 13.9726 13.3228 13.6156C14.2535 13.2585 15.302 13.0799 16.4682 13.0799C17.6402 13.0799 18.6887 13.2585 19.6136 13.6156C20.5443 13.9726 21.3343 14.4363 21.9835 15.0065C22.6384 15.5709 23.1382 16.1728 23.4829 16.8121C23.8276 17.4514 24 18.0533 24 18.6177C24 19.5392 23.2934 20 21.8801 20H11.0564ZM10.6427 18.6955H22.2937C22.4086 18.6955 22.489 18.6782 22.535 18.6436C22.5867 18.6091 22.6126 18.5457 22.6126 18.4536C22.6126 18.0965 22.4776 17.6875 22.2075 17.2268C21.9433 16.766 21.5497 16.3197 21.0269 15.8877C20.5041 15.4557 19.8607 15.0986 19.0966 14.8164C18.3325 14.5284 17.4564 14.3844 16.4682 14.3844C15.4801 14.3844 14.604 14.5284 13.8399 14.8164C13.0815 15.0986 12.4409 15.4557 11.9181 15.8877C11.3953 16.3197 10.9989 16.766 10.7289 17.2268C10.4646 17.6875 10.3325 18.0965 10.3325 18.4536C10.3325 18.5457 10.3555 18.6091 10.4014 18.6436C10.4531 18.6782 10.5336 18.6955 10.6427 18.6955ZM16.4768 12C15.7932 12 15.1698 11.8186 14.6068 11.4557C14.0438 11.0929 13.5928 10.6062 13.2539 9.99568C12.9206 9.37941 12.754 8.70266 12.754 7.96544C12.754 7.23398 12.9206 6.56875 13.2539 5.96976C13.5928 5.37077 14.0438 4.89273 14.6068 4.53564C15.1698 4.17855 15.7932 4 16.4768 4C17.1662 4 17.7925 4.17567 18.3555 4.527C18.9185 4.87833 19.3666 5.35349 19.6998 5.95248C20.033 6.54572 20.1996 7.21094 20.1996 7.94816C20.1996 8.69114 20.0302 9.37077 19.6912 9.98704C19.358 10.5976 18.9099 11.0871 18.3469 11.4557C17.7838 11.8186 17.1605 12 16.4768 12ZM16.4768 10.6955C16.902 10.6955 17.2898 10.5745 17.6402 10.3326C17.9964 10.085 18.2808 9.75378 18.4934 9.33909C18.7059 8.91865 18.8122 8.455 18.8122 7.94816C18.8122 7.44708 18.7059 6.99784 18.4934 6.60043C18.2865 6.19726 18.005 5.88049 17.6488 5.65011C17.2984 5.41973 16.9077 5.30454 16.4768 5.30454C16.0517 5.30454 15.661 5.42261 15.3048 5.65875C14.9544 5.88913 14.6729 6.2059 14.4603 6.60907C14.2478 7.01224 14.1415 7.46436 14.1415 7.96544C14.1415 8.47228 14.2478 8.93305 14.4603 9.34773C14.6786 9.76242 14.963 10.0907 15.3135 10.3326C15.6697 10.5745 16.0575 10.6955 16.4768 10.6955ZM1.74937 20C1.16912 20 0.732496 19.879 0.439497 19.6371C0.146499 19.401 0 19.041 0 18.5572C0 17.8431 0.169479 17.1577 0.508438 16.5011C0.847397 15.8387 1.31562 15.2513 1.91311 14.7387C2.51634 14.2203 3.21149 13.8114 3.99856 13.5119C4.79138 13.2124 5.63878 13.0626 6.54075 13.0626C7.01759 13.0626 7.48007 13.1058 7.92819 13.1922C8.3763 13.2729 8.80718 13.3967 9.22083 13.5637C9.64022 13.725 10.0366 13.9266 10.4101 14.1685C10.2147 14.3067 10.0366 14.4536 9.87576 14.6091C9.7149 14.7588 9.5684 14.9201 9.43627 15.0929C9.15476 14.9258 8.85889 14.7876 8.54865 14.6782C8.24417 14.5688 7.92244 14.4852 7.58348 14.4276C7.25027 14.3701 6.90269 14.3413 6.54075 14.3413C5.83411 14.3413 5.16481 14.4564 4.53285 14.6868C3.9009 14.9114 3.34075 15.2196 2.85242 15.6112C2.36409 15.9971 1.97917 16.4377 1.69767 16.933C1.4219 17.4284 1.28402 17.9438 1.28402 18.4795C1.28402 18.5659 1.30413 18.6263 1.34434 18.6609C1.38456 18.7012 1.45063 18.7214 1.54255 18.7214H7.85063C7.8219 18.9863 7.87361 19.2369 8.00574 19.473C8.13788 19.7091 8.30736 19.8848 8.51418 20H1.74937ZM6.54937 12.0778C5.95763 12.0778 5.41759 11.9194 4.92926 11.6026C4.44093 11.2801 4.05027 10.851 3.75727 10.3153C3.46427 9.7797 3.31777 9.18646 3.31777 8.53564C3.31777 7.89633 3.46427 7.31461 3.75727 6.7905C4.05027 6.26062 4.44093 5.84017 4.92926 5.52916C5.41759 5.21238 5.95763 5.054 6.54937 5.054C7.14686 5.054 7.68977 5.2095 8.1781 5.52052C8.66643 5.83153 9.05422 6.2491 9.34147 6.77322C9.63447 7.29734 9.78097 7.87905 9.78097 8.51836C9.78097 9.16919 9.63447 9.7653 9.34147 10.3067C9.04847 10.8481 8.65781 11.2801 8.16948 11.6026C7.68115 11.9194 7.14111 12.0778 6.54937 12.0778ZM6.54937 10.7905C6.89982 10.7905 7.22442 10.6897 7.52316 10.4881C7.8219 10.2808 8.06032 10.0072 8.23842 9.66739C8.41652 9.32181 8.50557 8.93881 8.50557 8.51836C8.50557 8.10943 8.41652 7.74082 8.23842 7.41253C8.06607 7.08423 7.83052 6.82505 7.53178 6.63499C7.23878 6.43916 6.91131 6.34125 6.54937 6.34125C6.19318 6.34125 5.86571 6.43916 5.56697 6.63499C5.27397 6.83081 5.03842 7.09575 4.86032 7.42981C4.68797 7.7581 4.6018 8.12671 4.6018 8.53564C4.6018 8.95032 4.69084 9.33045 4.86894 9.67603C5.04704 10.0158 5.28259 10.2865 5.57558 10.4881C5.87433 10.6897 6.19892 10.7905 6.54937 10.7905Z" fill="url(#paint0_linear_5703_27911)"/>
<defs>
<linearGradient id="paint0_linear_5703_27911" x1="0" y1="12" x2="24" y2="12" gradientUnits="userSpaceOnUse">
<stop stop-color="#3FD0D8"/>
<stop offset="1" stop-color="#0336A7"/>
</linearGradient>
</defs>
</svg>
