<svg width="21" height="14" viewBox="0 0 21 14" fill="none" xmlns="http://www.w3.org/2000/svg">
<path d="M9.39697 13.5645C8.20068 13.5645 7.60254 13.1738 7.60254 12.3926C7.60254 11.9141 7.74902 11.4038 8.04199 10.8618C8.33496 10.3198 8.75732 9.80957 9.30908 9.33105C9.86572 8.84766 10.5371 8.45459 11.3232 8.15186C12.1143 7.84912 13.0054 7.69775 13.9966 7.69775C14.9927 7.69775 15.8838 7.84912 16.6699 8.15186C17.4609 8.45459 18.1323 8.84766 18.6841 9.33105C19.2407 9.80957 19.6655 10.3198 19.9585 10.8618C20.2515 11.4038 20.3979 11.9141 20.3979 12.3926C20.3979 13.1738 19.7974 13.5645 18.5962 13.5645H9.39697ZM9.04541 12.4585H18.9478C19.0454 12.4585 19.1138 12.4438 19.1528 12.4146C19.1968 12.3853 19.2188 12.3315 19.2188 12.2534C19.2188 11.9507 19.104 11.604 18.8745 11.2134C18.6499 10.8228 18.3154 10.4443 17.8711 10.0781C17.4268 9.71191 16.8799 9.40918 16.2305 9.16992C15.5811 8.92578 14.8364 8.80371 13.9966 8.80371C13.1567 8.80371 12.4121 8.92578 11.7627 9.16992C11.1182 9.40918 10.5737 9.71191 10.1294 10.0781C9.68506 10.4443 9.34814 10.8228 9.11865 11.2134C8.89404 11.604 8.78174 11.9507 8.78174 12.2534C8.78174 12.3315 8.80127 12.3853 8.84033 12.4146C8.88428 12.4438 8.95264 12.4585 9.04541 12.4585ZM14.0039 6.78223C13.4229 6.78223 12.8931 6.62842 12.4146 6.3208C11.936 6.01318 11.5527 5.60059 11.2646 5.08301C10.9814 4.56055 10.8398 3.98682 10.8398 3.36182C10.8398 2.7417 10.9814 2.17773 11.2646 1.66992C11.5527 1.16211 11.936 0.756836 12.4146 0.454102C12.8931 0.151367 13.4229 0 14.0039 0C14.5898 0 15.1221 0.148926 15.6006 0.446777C16.0791 0.744629 16.46 1.14746 16.7432 1.65527C17.0264 2.1582 17.168 2.72217 17.168 3.34717C17.168 3.97705 17.0239 4.55322 16.7358 5.07568C16.4526 5.59326 16.0718 6.0083 15.5933 6.3208C15.1147 6.62842 14.585 6.78223 14.0039 6.78223ZM14.0039 5.67627C14.3652 5.67627 14.6948 5.57373 14.9927 5.36865C15.2954 5.15869 15.5371 4.87793 15.7178 4.52637C15.8984 4.16992 15.9888 3.77686 15.9888 3.34717C15.9888 2.92236 15.8984 2.5415 15.7178 2.20459C15.542 1.86279 15.3027 1.59424 15 1.39893C14.7021 1.20361 14.3701 1.10596 14.0039 1.10596C13.6426 1.10596 13.3105 1.20605 13.0078 1.40625C12.71 1.60156 12.4707 1.87012 12.29 2.21191C12.1094 2.55371 12.019 2.93701 12.019 3.36182C12.019 3.7915 12.1094 4.18213 12.29 4.53369C12.4756 4.88525 12.7173 5.16357 13.0151 5.36865C13.3179 5.57373 13.6475 5.67627 14.0039 5.67627ZM1.48682 13.5645C0.993652 13.5645 0.622559 13.4619 0.373535 13.2568C0.124512 13.0566 0 12.7515 0 12.3413C0 11.7358 0.144043 11.1548 0.432129 10.5981C0.720215 10.0366 1.11816 9.53857 1.62598 9.104C2.13867 8.66455 2.72949 8.31787 3.39844 8.06396C4.07227 7.81006 4.79248 7.68311 5.55908 7.68311C5.96436 7.68311 6.35742 7.71973 6.73828 7.79297C7.11914 7.86133 7.48535 7.96631 7.83691 8.10791C8.19336 8.24463 8.53027 8.41553 8.84766 8.62061C8.68164 8.73779 8.53027 8.8623 8.39355 8.99414C8.25684 9.12109 8.13232 9.25781 8.02002 9.4043C7.78076 9.2627 7.5293 9.14551 7.26562 9.05273C7.00684 8.95996 6.7334 8.88916 6.44531 8.84033C6.16211 8.7915 5.8667 8.76709 5.55908 8.76709C4.9585 8.76709 4.38965 8.86475 3.85254 9.06006C3.31543 9.25049 2.83936 9.51172 2.42432 9.84375C2.00928 10.1709 1.68213 10.5444 1.44287 10.9644C1.2085 11.3843 1.09131 11.8213 1.09131 12.2754C1.09131 12.3486 1.1084 12.3999 1.14258 12.4292C1.17676 12.4634 1.23291 12.4805 1.31104 12.4805H6.67236C6.64795 12.7051 6.69189 12.9175 6.8042 13.1177C6.9165 13.3179 7.06055 13.4668 7.23633 13.5645H1.48682ZM5.56641 6.84814C5.06348 6.84814 4.60449 6.71387 4.18945 6.44531C3.77441 6.17188 3.44238 5.80811 3.19336 5.354C2.94434 4.8999 2.81982 4.39697 2.81982 3.84521C2.81982 3.30322 2.94434 2.81006 3.19336 2.36572C3.44238 1.9165 3.77441 1.56006 4.18945 1.29639C4.60449 1.02783 5.06348 0.893555 5.56641 0.893555C6.07422 0.893555 6.53564 1.02539 6.95068 1.28906C7.36572 1.55273 7.69531 1.90674 7.93945 2.35107C8.18848 2.79541 8.31299 3.28857 8.31299 3.83057C8.31299 4.38232 8.18848 4.8877 7.93945 5.34668C7.69043 5.80566 7.3584 6.17188 6.94336 6.44531C6.52832 6.71387 6.06934 6.84814 5.56641 6.84814ZM5.56641 5.75684C5.86426 5.75684 6.14014 5.67139 6.39404 5.50049C6.64795 5.32471 6.85059 5.09277 7.00195 4.80469C7.15332 4.51172 7.229 4.18701 7.229 3.83057C7.229 3.48389 7.15332 3.17139 7.00195 2.89307C6.85547 2.61475 6.65527 2.39502 6.40137 2.23389C6.15234 2.06787 5.87402 1.98486 5.56641 1.98486C5.26367 1.98486 4.98535 2.06787 4.73145 2.23389C4.48242 2.3999 4.28223 2.62451 4.13086 2.90771C3.98438 3.18604 3.91113 3.49854 3.91113 3.84521C3.91113 4.19678 3.98682 4.51904 4.13818 4.81201C4.28955 5.1001 4.48975 5.32959 4.73877 5.50049C4.99268 5.67139 5.26855 5.75684 5.56641 5.75684Z" fill="#6B7280"/>
</svg>
