<svg width="20" height="20" viewBox="0 0 20 20" fill="none" xmlns="http://www.w3.org/2000/svg">
<path d="M17.7082 5.03402C17.7082 3.51375 16.4897 2.2915 14.9998 2.2915C13.51 2.2915 12.2915 3.51375 12.2915 5.03402C12.2917 5.8213 12.6385 6.43328 13.1867 7.05876C13.4655 7.3769 13.7783 7.67872 14.116 8.01091C14.4134 8.30343 14.7256 8.61931 15.0112 8.9598C15.2967 8.63003 15.6077 8.31888 15.9015 8.02718C16.2356 7.69555 16.5476 7.38724 16.8228 7.06527C17.367 6.42828 17.708 5.80507 17.7082 5.03402ZM18.9582 5.03402C18.958 6.22937 18.4074 7.13347 17.7716 7.87744C17.4569 8.24569 17.1069 8.59171 16.7821 8.91423C16.4496 9.24423 16.1412 9.55278 15.8739 9.87288C15.4208 10.4146 14.5661 10.3942 14.1307 9.85335C13.8722 9.53239 13.5702 9.22724 13.2404 8.90283C12.9183 8.58599 12.563 8.2441 12.2459 7.88232C11.6026 7.14815 11.0417 6.25197 11.0415 5.03402C11.0415 2.83525 12.8078 1.0415 14.9998 1.0415C17.1918 1.0415 18.9582 2.83525 18.9582 5.03402Z" fill="#6B7280"/>
<path d="M15.008 4.1665C15.4679 4.16685 15.8413 4.53981 15.8413 4.99984C15.8413 5.45986 15.4679 5.83283 15.008 5.83317H14.9998C14.5396 5.83317 14.1665 5.46007 14.1665 4.99984C14.1665 4.5396 14.5396 4.1665 14.9998 4.1665H15.008Z" fill="#6B7280"/>
<path d="M6.0415 15.8335C6.0415 14.798 5.20204 13.9585 4.1665 13.9585C3.13097 13.9585 2.2915 14.798 2.2915 15.8335C2.2915 16.869 3.13097 17.7085 4.1665 17.7085C5.20204 17.7085 6.0415 16.869 6.0415 15.8335ZM7.2915 15.8335C7.2915 17.5594 5.89239 18.9585 4.1665 18.9585C2.44061 18.9585 1.0415 17.5594 1.0415 15.8335C1.0415 14.1076 2.44061 12.7085 4.1665 12.7085C5.89239 12.7085 7.2915 14.1076 7.2915 15.8335Z" fill="#6B7280"/>
<path d="M12.7083 13.3335C12.7083 12.3848 11.7762 11.4585 10.4167 11.4585H7.91667C6.05452 11.4585 4.375 10.1463 4.375 8.3335C4.375 6.52069 6.05451 5.2085 7.91667 5.2085H9.16667C9.51184 5.2085 9.79167 5.48832 9.79167 5.8335C9.79167 6.17867 9.51184 6.4585 9.16667 6.4585H7.91667C6.55715 6.4585 5.625 7.38488 5.625 8.3335C5.625 9.28215 6.55715 10.2085 7.91667 10.2085H10.4167C12.2788 10.2085 13.9583 11.5206 13.9583 13.3335C13.9583 15.1463 12.2788 16.4585 10.4167 16.4585H9.16667C8.82149 16.4585 8.54167 16.1787 8.54167 15.8335C8.54167 15.4883 8.82149 15.2085 9.16667 15.2085H10.4167C11.7762 15.2085 12.7083 14.2821 12.7083 13.3335Z" fill="#6B7280"/>
</svg>
