<svg width="64" height="44" viewBox="0 0 64 44" fill="none" xmlns="http://www.w3.org/2000/svg">
<path d="M23.2824 12.6872C23.1922 12.5918 23.1217 12.4795 23.0749 12.3567C23.0281 12.234 23.0059 12.1033 23.0096 11.972C23.0133 11.8407 23.0428 11.7114 23.0965 11.5915C23.1502 11.4716 23.227 11.3635 23.3224 11.2732C23.4179 11.183 23.5302 11.1125 23.6529 11.0657C23.7757 11.0189 23.9064 10.9967 24.0377 11.0004C24.169 11.0041 24.2983 11.0337 24.4182 11.0873C24.5381 11.141 24.6462 11.2178 24.7364 11.3132L33.2364 20.3132C33.412 20.4989 33.5098 20.7447 33.5098 21.0002C33.5098 21.2558 33.412 21.5016 33.2364 21.6872L24.7364 30.6882C24.6468 30.7858 24.5387 30.8646 24.4184 30.92C24.298 30.9754 24.1679 31.0064 24.0355 31.0111C23.9031 31.0158 23.7711 30.9942 23.6471 30.9474C23.5232 30.9007 23.4098 30.8298 23.3134 30.7388C23.2171 30.6479 23.1398 30.5387 23.0861 30.4176C23.0323 30.2965 23.0031 30.166 23.0002 30.0335C22.9974 29.9011 23.0208 29.7694 23.0693 29.6461C23.1177 29.5228 23.1902 29.4103 23.2824 29.3153L31.1344 21.0002L23.2824 12.6872Z" fill="#1C1C1C" fill-opacity="0.4"/>
<path d="M16.2824 12.6872C16.1922 12.5918 16.1217 12.4795 16.0749 12.3567C16.0281 12.234 16.0059 12.1033 16.0096 11.972C16.0133 11.8407 16.0428 11.7114 16.0965 11.5915C16.1502 11.4716 16.227 11.3635 16.3224 11.2732C16.4179 11.183 16.5302 11.1125 16.6529 11.0657C16.7757 11.0189 16.9064 10.9967 17.0377 11.0004C17.169 11.0041 17.2983 11.0337 17.4182 11.0873C17.5381 11.141 17.6462 11.2178 17.7364 11.3132L26.2364 20.3132C26.412 20.4989 26.5098 20.7447 26.5098 21.0002C26.5098 21.2558 26.412 21.5016 26.2364 21.6872L17.7364 30.6882C17.6468 30.7858 17.5387 30.8646 17.4184 30.92C17.298 30.9754 17.1679 31.0064 17.0355 31.0111C16.9031 31.0158 16.7711 30.9942 16.6471 30.9474C16.5232 30.9007 16.4098 30.8298 16.3134 30.7388C16.2171 30.6479 16.1398 30.5387 16.0861 30.4176C16.0323 30.2965 16.0031 30.166 16.0002 30.0335C15.9974 29.9011 16.0208 29.7694 16.0693 29.6461C16.1177 29.5228 16.1902 29.4103 16.2824 29.3153L24.1344 21.0002L16.2824 12.6872Z" fill="#1C1C1C" fill-opacity="0.1"/>
<path d="M30.2824 12.6872C30.1922 12.5918 30.1217 12.4795 30.0749 12.3567C30.0281 12.234 30.0059 12.1033 30.0096 11.972C30.0133 11.8407 30.0428 11.7114 30.0965 11.5915C30.1502 11.4716 30.227 11.3635 30.3224 11.2732C30.4179 11.183 30.5302 11.1125 30.6529 11.0657C30.7757 11.0189 30.9064 10.9967 31.0377 11.0004C31.169 11.0041 31.2983 11.0337 31.4182 11.0873C31.5381 11.141 31.6462 11.2178 31.7364 11.3132L40.2364 20.3132C40.412 20.4989 40.5098 20.7447 40.5098 21.0002C40.5098 21.2558 40.412 21.5016 40.2364 21.6872L31.7364 30.6882C31.6468 30.7858 31.5387 30.8646 31.4184 30.92C31.298 30.9754 31.1679 31.0064 31.0355 31.0111C30.9031 31.0158 30.7711 30.9942 30.6471 30.9474C30.5232 30.9007 30.4098 30.8298 30.3134 30.7388C30.2171 30.6479 30.1398 30.5387 30.0861 30.4176C30.0323 30.2965 30.0031 30.166 30.0002 30.0335C29.9974 29.9011 30.0208 29.7694 30.0693 29.6461C30.1177 29.5228 30.1902 29.4103 30.2824 29.3153L38.1344 21.0002L30.2824 12.6872Z" fill="#1C1C1C" fill-opacity="0.7"/>
<path d="M37.2824 12.6872C37.1922 12.5918 37.1217 12.4795 37.0749 12.3567C37.0281 12.234 37.0059 12.1033 37.0096 11.972C37.0133 11.8407 37.0428 11.7114 37.0965 11.5915C37.1502 11.4716 37.227 11.3635 37.3224 11.2732C37.4179 11.183 37.5302 11.1125 37.6529 11.0657C37.7757 11.0189 37.9064 10.9967 38.0377 11.0004C38.169 11.0041 38.2983 11.0337 38.4182 11.0873C38.5381 11.141 38.6462 11.2178 38.7364 11.3132L47.2364 20.3132C47.412 20.4989 47.5098 20.7447 47.5098 21.0002C47.5098 21.2558 47.412 21.5016 47.2364 21.6872L38.7364 30.6882C38.6468 30.7858 38.5387 30.8646 38.4184 30.92C38.298 30.9754 38.1679 31.0064 38.0355 31.0111C37.9031 31.0158 37.7711 30.9942 37.6471 30.9474C37.5232 30.9007 37.4098 30.8298 37.3134 30.7388C37.2171 30.6479 37.1398 30.5387 37.0861 30.4176C37.0323 30.2965 37.0031 30.166 37.0002 30.0335C36.9974 29.9011 37.0208 29.7694 37.0693 29.6461C37.1177 29.5228 37.1902 29.4103 37.2824 29.3153L45.1344 21.0002L37.2824 12.6872Z" fill="#1C1C1C"/>
</svg>
