<svg width="24" height="24" viewBox="0 0 24 24" fill="none" xmlns="http://www.w3.org/2000/svg">
<path d="M20.25 6.12309C20.2499 5.78923 20.0246 5.47567 19.6807 5.35258L19.5264 5.31157C16.7555 4.82985 14.4047 3.83473 13.0049 3.14067L12.4639 2.8643C12.2119 2.73103 11.9107 2.71445 11.6465 2.8145L11.5361 2.8643C10.3392 3.49803 7.96252 4.61096 5.06055 5.20122L4.47363 5.31157C4.04445 5.38617 3.7501 5.74164 3.75 6.12309V11.0508C3.75 13.9884 5.23918 16.2898 7.02832 17.9991C8.8199 19.7107 10.8543 20.77 11.7842 21.2012L11.8916 21.2373C11.9997 21.2618 12.1103 21.2501 12.2158 21.2012L12.6133 21.0098C13.6501 20.4948 15.4039 19.4968 16.9717 17.9991C18.7608 16.2898 20.25 13.9884 20.25 11.0508V6.12309ZM21.75 11.0508C21.75 14.5415 19.9702 17.2081 18.0078 19.0831C16.2929 20.7214 14.3942 21.8003 13.2754 22.3555L12.8467 22.5616C12.3735 22.781 11.8461 22.8091 11.3594 22.6446L11.1533 22.5616C10.1518 22.0971 7.95198 20.9554 5.99219 19.0831C4.02976 17.2081 2.25 14.5415 2.25 11.0508V6.12309C2.2501 4.95471 3.12738 4.0234 4.2168 3.83403L4.76465 3.73051C7.47264 3.17932 9.70717 2.13568 10.834 1.53911L10.9717 1.47075C11.6699 1.15495 12.4844 1.1782 13.166 1.53911L13.6748 1.79887C14.9917 2.45147 17.1995 3.38485 19.7832 3.83403L19.9854 3.87797C20.9793 4.14063 21.7499 5.02778 21.75 6.12309V11.0508Z" fill="#374151"/>
<path d="M13.002 8.25C13.002 7.69808 12.554 7.2501 12.001 7.25C11.448 7.25 11 7.69805 11 8.25C11 8.80195 11.448 9.25 12.001 9.25C12.554 9.2499 13.002 8.80192 13.002 8.25ZM14.502 8.25C14.502 9.63096 13.3818 10.7499 12.001 10.75C10.6202 10.75 9.5 9.63105 9.5 8.25C9.5 6.86895 10.6202 5.75 12.001 5.75C13.3818 5.7501 14.502 6.86904 14.502 8.25Z" fill="#374151"/>
<path d="M14.75 15.125C14.75 14.0895 13.9105 13.25 12.875 13.25H11.125C10.0895 13.25 9.25 14.0895 9.25 15.125C9.25 15.194 9.30599 15.25 9.375 15.25H14.625C14.694 15.25 14.75 15.194 14.75 15.125ZM16.25 15.125C16.25 16.0224 15.5224 16.75 14.625 16.75H9.375C8.47751 16.75 7.75 16.0224 7.75 15.125C7.75 13.2611 9.26103 11.75 11.125 11.75H12.875C14.7389 11.75 16.25 13.2611 16.25 15.125Z" fill="#374151"/>
</svg>
