<svg width="24" height="24" viewBox="0 0 24 24" fill="none" xmlns="http://www.w3.org/2000/svg">
<path d="M16.4697 16.4697C16.7626 16.1768 17.2373 16.1768 17.5302 16.4697L21.5302 20.4697C21.8231 20.7626 21.8231 21.2373 21.5302 21.5302C21.2373 21.8231 20.7626 21.8231 20.4697 21.5302L16.4697 17.5302C16.1768 17.2373 16.1768 16.7626 16.4697 16.4697Z" fill="#374151"/>
<path d="M18.25 11C18.25 6.99593 15.0041 3.75 11 3.75C6.99593 3.75 3.75 6.99593 3.75 11C3.75 15.0041 6.99593 18.25 11 18.25C15.0041 18.25 18.25 15.0041 18.25 11ZM19.75 11C19.75 15.8325 15.8325 19.75 11 19.75C6.16751 19.75 2.25 15.8325 2.25 11C2.25 6.16751 6.16751 2.25 11 2.25C15.8325 2.25 19.75 6.16751 19.75 11Z" fill="#374151"/>
<path d="M6.52051 8.49961C6.52058 7.86689 7.03388 7.35359 7.6666 7.35352H14.3334C14.9666 7.35352 15.4795 7.8683 15.4795 8.50078V13.4988C15.4795 14.1314 14.9665 14.6461 14.3334 14.6461H7.6666C7.03392 14.646 6.52065 14.1327 6.52051 13.5V12.041C6.52072 11.8686 6.66094 11.7293 6.8334 11.7293C7.2361 11.7293 7.5623 11.4019 7.5623 10.9992C7.56202 10.5968 7.23593 10.2703 6.8334 10.2703C6.66098 10.2703 6.52079 10.1309 6.52051 9.95859V8.49961ZM7.14629 9.68203C7.74315 9.82322 8.18785 10.3593 8.18809 10.9992C8.18809 11.6393 7.74319 12.1751 7.14629 12.3164V13.5C7.14643 13.7875 7.3791 14.0202 7.6666 14.0203H14.3334C14.6208 14.0203 14.8537 13.7867 14.8537 13.4988V8.50078C14.8537 8.21278 14.6207 7.9793 14.3334 7.9793H7.6666C7.37906 7.97937 7.14636 8.21206 7.14629 8.49961V9.68203Z" fill="#141B34"/>
<path d="M13.5003 10.6875C13.6727 10.6877 13.812 10.8279 13.812 11.0004C13.812 11.1728 13.6727 11.3131 13.5003 11.3133H12.2499C12.0773 11.3133 11.937 11.173 11.937 11.0004C11.937 10.8278 12.0773 10.6875 12.2499 10.6875H13.5003Z" fill="#141B34"/>
<path d="M13.5002 12.3535C13.6727 12.3536 13.8131 12.4939 13.8131 12.6664C13.8131 12.839 13.6727 12.9792 13.5002 12.9793H10.5834C10.4108 12.9793 10.2705 12.839 10.2705 12.6664C10.2705 12.4938 10.4108 12.3535 10.5834 12.3535H13.5002Z" fill="#141B34"/>
</svg>
