<svg width="60" height="60" viewBox="0 0 60 60" fill="none" xmlns="http://www.w3.org/2000/svg">
    <g filter="url(#filter0_dd_1932_10382)">
        <circle cx="30" cy="28" r="26" fill="white"/>
    </g>
    <path d="M21.2891 34.8594C20.0182 34.8594 19.0651 34.5547 18.4297 33.9453C17.7995 33.3359 17.4505 32.4635 17.3828 31.3281C17.3724 31.1406 17.4583 31.0469 17.6406 31.0469H19.5156C19.6615 31.0469 19.7448 31.1354 19.7656 31.3125C19.8229 31.7969 19.9818 32.1745 20.2422 32.4453C20.5078 32.7109 20.8724 32.8438 21.3359 32.8438C22.2422 32.8438 22.6953 32.3984 22.6953 31.5078C22.6953 31.0911 22.5625 30.75 22.2969 30.4844C22.0365 30.2188 21.5911 29.9219 20.9609 29.5938L20.1953 29.1875C19.5599 28.8594 19.0495 28.5182 18.6641 28.1641C18.2786 27.8047 17.9974 27.4036 17.8203 26.9609C17.6484 26.5182 17.5625 26 17.5625 25.4062C17.5625 24.6979 17.7083 24.0755 18 23.5391C18.2969 23.0026 18.724 22.5859 19.2812 22.2891C19.8385 21.987 20.5078 21.8359 21.2891 21.8359C22.487 21.8359 23.3828 22.1536 23.9766 22.7891C24.5703 23.4193 24.8958 24.2708 24.9531 25.3438C24.9635 25.5312 24.8776 25.625 24.6953 25.625H22.9375C22.776 25.625 22.6875 25.5391 22.6719 25.3672C22.6146 24.8828 22.474 24.5104 22.25 24.25C22.026 23.9844 21.7057 23.8516 21.2891 23.8516C20.9089 23.8516 20.6016 23.9688 20.3672 24.2031C20.1328 24.4375 20.0156 24.7448 20.0156 25.125C20.0156 25.5677 20.1354 25.9323 20.375 26.2188C20.6146 26.5052 21.0365 26.8073 21.6406 27.125L22.4062 27.5078C23.0938 27.8568 23.6354 28.2031 24.0312 28.5469C24.4323 28.8854 24.7188 29.2656 24.8906 29.6875C25.0625 30.1094 25.1484 30.6198 25.1484 31.2188C25.1484 32.3177 24.8099 33.2005 24.1328 33.8672C23.4557 34.5286 22.5078 34.8594 21.2891 34.8594ZM30.5078 34.8594C29.0443 34.8594 27.9375 34.3151 27.1875 33.2266C26.4427 32.138 26.0703 30.5182 26.0703 28.3672C26.0703 26.2266 26.4427 24.6068 27.1875 23.5078C27.9375 22.4089 29.0443 21.8594 30.5078 21.8594C31.9505 21.8594 33.0495 22.4089 33.8047 23.5078C34.5599 24.6068 34.9375 26.2266 34.9375 28.3672C34.9375 30.5182 34.5599 32.138 33.8047 33.2266C33.0495 34.3151 31.9505 34.8594 30.5078 34.8594ZM30.5078 32.7344C31.1276 32.7344 31.5964 32.3828 31.9141 31.6797C32.2318 30.9766 32.3906 29.8724 32.3906 28.3672C32.3906 26.8672 32.2318 25.763 31.9141 25.0547C31.5964 24.3411 31.1276 23.9844 30.5078 23.9844C29.8672 23.9844 29.388 24.3411 29.0703 25.0547C28.7526 25.763 28.5938 26.8672 28.5938 28.3672C28.5938 29.8724 28.7526 30.9766 29.0703 31.6797C29.388 32.3828 29.8672 32.7344 30.5078 32.7344ZM39.7578 34.8594C38.487 34.8594 37.5339 34.5547 36.8984 33.9453C36.263 33.3359 35.9141 32.4635 35.8516 31.3281C35.8411 31.1406 35.9271 31.0469 36.1094 31.0469H37.9844C38.1302 31.0469 38.2135 31.1354 38.2344 31.3125C38.2917 31.7969 38.4505 32.1745 38.7109 32.4453C38.9766 32.7109 39.3385 32.8438 39.7969 32.8438C40.7083 32.8438 41.1641 32.3984 41.1641 31.5078C41.1641 31.0911 41.0312 30.7526 40.7656 30.4922C40.5052 30.2266 40.0599 29.9271 39.4297 29.5938L38.6641 29.1875C38.0339 28.849 37.5234 28.5026 37.1328 28.1484C36.7474 27.7943 36.4661 27.3984 36.2891 26.9609C36.1172 26.5182 36.0312 26 36.0312 25.4062C36.0312 24.6979 36.1771 24.0755 36.4688 23.5391C36.7656 23.0026 37.1927 22.5859 37.75 22.2891C38.3073 21.987 38.9766 21.8359 39.7578 21.8359C40.9557 21.8359 41.849 22.1536 42.4375 22.7891C43.0312 23.4193 43.3594 24.2708 43.4219 25.3438C43.4323 25.5312 43.3464 25.625 43.1641 25.625H41.4062C41.2448 25.625 41.1536 25.5391 41.1328 25.3672C41.0807 24.8828 40.9427 24.5104 40.7188 24.25C40.4948 23.9844 40.1745 23.8516 39.7578 23.8516C39.3776 23.8516 39.0703 23.9688 38.8359 24.2031C38.6016 24.4375 38.4844 24.7448 38.4844 25.125C38.4844 25.5677 38.6016 25.9349 38.8359 26.2266C39.0755 26.513 39.5 26.8125 40.1094 27.125L40.875 27.5078C41.5625 27.8568 42.1042 28.2005 42.5 28.5391C42.901 28.8776 43.1875 29.2604 43.3594 29.6875C43.5312 30.1094 43.6172 30.6198 43.6172 31.2188C43.6172 32.3177 43.2786 33.2005 42.6016 33.8672C41.9245 34.5286 40.9766 34.8594 39.7578 34.8594Z" fill="#DC2626"/>
    <circle cx="30.5" cy="28.5" r="20.5" stroke="#DC2626" stroke-width="2"/>
    <defs>
        <filter id="filter0_dd_1932_10382" x="0" y="0" width="60" height="60" filterUnits="userSpaceOnUse" color-interpolation-filters="sRGB">
            <feFlood flood-opacity="0" result="BackgroundImageFix"/>
            <feColorMatrix in="SourceAlpha" type="matrix" values="0 0 0 0 0 0 0 0 0 0 0 0 0 0 0 0 0 0 127 0" result="hardAlpha"/>
            <feOffset dy="2"/>
            <feGaussianBlur stdDeviation="2"/>
            <feComposite in2="hardAlpha" operator="out"/>
            <feColorMatrix type="matrix" values="0 0 0 0 0 0 0 0 0 0 0 0 0 0 0 0 0 0 0.12 0"/>
            <feBlend mode="normal" in2="BackgroundImageFix" result="effect1_dropShadow_1932_10382"/>
            <feColorMatrix in="SourceAlpha" type="matrix" values="0 0 0 0 0 0 0 0 0 0 0 0 0 0 0 0 0 0 127 0" result="hardAlpha"/>
            <feOffset dy="1"/>
            <feGaussianBlur stdDeviation="1"/>
            <feComposite in2="hardAlpha" operator="out"/>
            <feColorMatrix type="matrix" values="0 0 0 0 0 0 0 0 0 0 0 0 0 0 0 0 0 0 0.2 0"/>
            <feBlend mode="normal" in2="effect1_dropShadow_1932_10382" result="effect2_dropShadow_1932_10382"/>
            <feBlend mode="normal" in="SourceGraphic" in2="effect2_dropShadow_1932_10382" result="shape"/>
        </filter>
    </defs>
</svg>
