<svg width="20" height="20" viewBox="0 0 20 20" fill="none" xmlns="http://www.w3.org/2000/svg">
<path d="M9 0.25C13.8325 0.25 17.75 4.16751 17.75 9C17.75 11.1462 16.9757 13.1106 15.6934 14.6328L19.5303 18.4697L19.582 18.5264C19.8223 18.8209 19.8049 19.2557 19.5303 19.5303C19.2557 19.8049 18.8209 19.8223 18.5264 19.582L18.4697 19.5303L14.6328 15.6934C13.1106 16.9757 11.1462 17.75 9 17.75C4.16751 17.75 0.25 13.8325 0.25 9C0.25 4.16751 4.16751 0.25 9 0.25ZM9 1.75C4.99593 1.75 1.75 4.99593 1.75 9C1.75 13.0041 4.99593 16.25 9 16.25C13.0041 16.25 16.25 13.0041 16.25 9C16.25 4.99593 13.0041 1.75 9 1.75Z" fill="#374151"/>
</svg>
