<svg width="60" height="60" viewBox="0 0 60 60" fill="none" xmlns="http://www.w3.org/2000/svg">
    <g filter="url(#filter0_dd_1932_10333)">
        <circle cx="30" cy="28" r="26" fill="white"/>
    </g>
    <path d="M41 20.667C41 19.0101 39.6569 17.667 38 17.667C36.3431 17.667 35 19.0101 35 20.667C35 22.3239 36.3431 23.667 38 23.667C39.6569 23.667 41 22.3239 41 20.667ZM43 20.667C43 23.4284 40.7615 25.667 38 25.667C35.2385 25.667 33 23.4284 33 20.667C33 17.9056 35.2385 15.667 38 15.667C40.7615 15.667 43 17.9056 43 20.667Z" fill="#374151"/>
    <path d="M25 28C25 26.3431 23.6569 25 22 25C20.3431 25 19 26.3431 19 28C19 29.6569 20.3431 31 22 31C23.6569 31 25 29.6569 25 28ZM27 28C27 30.7615 24.7614 33 22 33C19.2386 33 17 30.7615 17 28C17 25.2385 19.2386 23 22 23C24.7614 23 27 25.2385 27 28Z" fill="#374151"/>
    <path d="M41 35.333C41 33.6761 39.6569 32.333 38 32.333C36.3431 32.333 35 33.6761 35 35.333C35 36.9899 36.3431 38.333 38 38.333C39.6569 38.333 41 36.9899 41 35.333ZM43 35.333C43 38.0945 40.7615 40.333 38 40.333C35.2385 40.333 33 38.0945 33 35.333C33 32.5715 35.2385 30.333 38 30.333C40.7615 30.333 43 32.5715 43 35.333Z" fill="#374151"/>
    <path d="M34.4193 32.4248L33.5807 34.2412L24.9141 30.2412L25.7526 28.4261L34.4193 32.4248ZM34.4193 22.9079L25.7526 26.9079L24.9141 25.0915L33.5807 21.0928L34.4193 22.9079Z" fill="#374151"/>
    <defs>
        <filter id="filter0_dd_1932_10333" x="0" y="0" width="60" height="60" filterUnits="userSpaceOnUse" color-interpolation-filters="sRGB">
            <feFlood flood-opacity="0" result="BackgroundImageFix"/>
            <feColorMatrix in="SourceAlpha" type="matrix" values="0 0 0 0 0 0 0 0 0 0 0 0 0 0 0 0 0 0 127 0" result="hardAlpha"/>
            <feOffset dy="2"/>
            <feGaussianBlur stdDeviation="2"/>
            <feComposite in2="hardAlpha" operator="out"/>
            <feColorMatrix type="matrix" values="0 0 0 0 0 0 0 0 0 0 0 0 0 0 0 0 0 0 0.12 0"/>
            <feBlend mode="normal" in2="BackgroundImageFix" result="effect1_dropShadow_1932_10333"/>
            <feColorMatrix in="SourceAlpha" type="matrix" values="0 0 0 0 0 0 0 0 0 0 0 0 0 0 0 0 0 0 127 0" result="hardAlpha"/>
            <feOffset dy="1"/>
            <feGaussianBlur stdDeviation="1"/>
            <feComposite in2="hardAlpha" operator="out"/>
            <feColorMatrix type="matrix" values="0 0 0 0 0 0 0 0 0 0 0 0 0 0 0 0 0 0 0.2 0"/>
            <feBlend mode="normal" in2="effect1_dropShadow_1932_10333" result="effect2_dropShadow_1932_10333"/>
            <feBlend mode="normal" in="SourceGraphic" in2="effect2_dropShadow_1932_10333" result="shape"/>
        </filter>
    </defs>
</svg>
