<svg width="81" height="80" viewBox="0 0 81 80" fill="none" xmlns="http://www.w3.org/2000/svg">
<path d="M4.2257 52.3636C3.75535 52.5148 3.29737 52.477 2.85177 52.2503C2.43093 51.9984 2.13386 51.5954 1.96057 51.0413C1.34169 48.6738 0.920843 46.218 0.698044 43.6741C0.5 41.1051 0.450489 38.7375 0.549511 36.5714C0.599022 36.0929 0.77231 35.7025 1.06938 35.4002C1.3912 35.0728 1.8368 34.9217 2.40617 34.9469C2.87653 34.9469 3.26024 35.1106 3.5573 35.438C3.85437 35.7403 3.99052 36.181 3.96577 36.7603C3.8915 39.279 3.96577 41.6718 4.18857 43.9386C4.43612 46.1802 4.79508 48.2204 5.26543 50.059C5.41396 50.6383 5.38921 51.1421 5.19116 51.5702C4.99312 51.9732 4.6713 52.2377 4.2257 52.3636ZM2.81464 30.2999C2.39379 30.0984 2.07197 29.7584 1.84917 29.2798C1.65113 28.7761 1.67589 28.159 1.92344 27.4286C3.5573 22.8194 5.68627 18.802 8.31036 15.3766C10.9592 11.926 13.967 9.0673 17.3337 6.80047C20.7005 4.50846 24.3024 2.80834 28.1395 1.70012C32.0014 0.566706 35.9499 0 39.985 0C43.6736 0 46.9908 0.415584 49.9367 1.24675C52.8826 2.05274 55.6181 3.2869 58.1431 4.94923C58.5392 5.2011 58.8363 5.51594 59.0343 5.89374C59.2571 6.24636 59.2571 6.68713 59.0343 7.21606C58.8115 7.7198 58.4526 8.00945 57.9575 8.08501C57.4624 8.16057 56.9549 8.03463 56.435 7.7072C54.3556 6.42267 51.9667 5.4026 49.2683 4.64699C46.57 3.86619 43.4755 3.4758 39.985 3.4758C35.1577 3.4758 30.4541 4.42031 25.8744 6.30933C21.2946 8.19835 17.1976 11.0319 13.5833 14.8099C9.96897 18.588 7.18398 23.3483 5.2283 29.0909C5.03025 29.6954 4.68368 30.0858 4.18857 30.2621C3.71821 30.4384 3.26024 30.451 2.81464 30.2999ZM78.8635 43.3719C78.3931 43.3719 78.0094 43.1956 77.7124 42.843C77.4153 42.4904 77.2296 42.0496 77.1554 41.5207C76.5612 34.8713 75.0264 29.1791 72.5508 24.4439C70.1001 19.7088 66.9932 15.6033 63.2304 12.1275C62.7848 11.7245 62.562 11.2837 62.562 10.8052C62.562 10.3266 62.7105 9.92365 63.0076 9.59622C63.2799 9.29398 63.6512 9.13026 64.1216 9.10508C64.592 9.0547 65.0376 9.21842 65.4584 9.59622C68.231 12.0142 70.6447 14.7721 72.6994 17.8701C74.7541 20.9429 76.4375 24.4313 77.7495 28.3353C79.0615 32.2393 79.9775 36.6218 80.4974 41.4829C80.5221 42.0118 80.3736 42.4652 80.0518 42.843C79.7547 43.1956 79.3586 43.3719 78.8635 43.3719ZM8.86735 63.2822C8.6198 62.9044 8.53315 62.4888 8.60742 62.0354C8.68169 61.5569 8.89211 61.1539 9.23869 60.8264C10.1299 60.0205 10.8107 59.0256 11.281 57.8418C11.7761 56.658 12.0237 55.4364 12.0237 54.1771C11.9989 52.8422 11.8009 51.4569 11.4295 50.0213C11.0582 48.5856 10.6745 47.024 10.2784 45.3365C9.90708 43.649 9.72142 41.7473 9.72142 39.6316C9.72142 35.5262 10.5012 31.66 12.0608 28.0331C13.6204 24.381 15.7741 21.157 18.522 18.3613C21.2699 15.5655 24.4386 13.3743 28.0281 11.7875C31.6424 10.1755 35.4671 9.36954 39.5023 9.36954C44.5276 9.36954 49.0331 10.3266 53.0188 12.2409C57.0291 14.1299 60.4454 16.8249 63.2675 20.3259C66.1144 23.8017 68.2805 27.9449 69.7659 32.7556C71.2759 37.5411 72.031 42.843 72.031 48.6612C72.031 52.8422 71.7339 56.5699 71.1398 59.8442C70.5456 63.0933 69.8525 65.8638 69.0603 68.1558C68.8623 68.6596 68.5157 68.987 68.0206 69.1381C67.5502 69.3144 67.1046 69.3144 66.6838 69.1381C66.3125 68.9618 66.0402 68.647 65.8669 68.1936C65.6936 67.7403 65.7059 67.2491 65.904 66.7202C66.6962 64.68 67.3522 62.1488 67.8721 59.1263C68.4167 56.1039 68.6766 52.6155 68.6519 48.6612C68.6271 41.5836 67.4265 35.3499 65.0499 29.9599C62.6982 24.5699 59.3438 20.3636 54.9868 17.3412C50.6546 14.3188 45.4931 12.8076 39.5023 12.8076C35.9375 12.8076 32.5584 13.5128 29.3649 14.9233C26.1714 16.3337 23.3493 18.2857 20.8985 20.7792C18.4725 23.2727 16.5663 26.1314 15.18 29.3554C13.7937 32.5793 13.1005 36.0047 13.1005 39.6316C13.1005 41.8985 13.2862 43.7875 13.6575 45.2987C14.0289 46.7847 14.4002 48.2078 14.7715 49.5679C15.1429 50.9028 15.3285 52.4392 15.3285 54.1771C15.3533 55.9402 15.0315 57.6781 14.3631 59.3908C13.7194 61.0783 12.754 62.4762 11.4667 63.5844C11.0458 63.9622 10.5755 64.1133 10.0556 64.0378C9.53575 63.9622 9.13966 63.7104 8.86735 63.2822ZM17.0367 70.1582C16.492 70.4353 15.9969 70.4982 15.5513 70.3471C15.1305 70.196 14.821 69.9189 14.623 69.5159C14.4497 69.1885 14.4126 68.7855 14.5116 68.307C14.6106 67.8536 14.9324 67.4254 15.4771 67.0224C16.8139 66.0905 17.9774 64.9697 18.9676 63.66C19.9826 62.3251 20.75 60.7509 21.2699 58.9374C21.4184 58.4337 21.6907 58.0685 22.0868 57.8418C22.4829 57.6151 22.8913 57.5647 23.3122 57.6907C23.7825 57.8418 24.1167 58.1314 24.3148 58.5596C24.5376 58.9878 24.5871 59.4412 24.4633 59.9197C24.1415 61.2294 23.5597 62.5895 22.718 64C21.9011 65.3853 20.9728 66.632 19.9331 67.7403C18.8933 68.8737 17.9279 69.6797 17.0367 70.1582ZM24.7975 50.5124C24.9708 51.0161 24.9708 51.4947 24.7975 51.9481C24.649 52.4014 24.3519 52.7288 23.9063 52.9303C23.3864 53.1318 22.9037 53.1318 22.4581 52.9303C22.0373 52.7288 21.7155 52.3636 21.4927 51.8347C20.75 49.9709 20.1311 48.0819 19.636 46.1677C19.1409 44.2283 18.8933 42.2259 18.8933 40.1606C18.8933 37.0878 19.4132 34.2416 20.4529 31.6222C21.5174 29.0028 23.0027 26.7233 24.9089 24.7839C26.8151 22.8445 29.0431 21.3459 31.5929 20.2881C34.1675 19.205 36.9648 18.6635 39.985 18.6635C41.8417 18.6635 43.6488 18.9154 45.4064 19.4191C47.1641 19.8977 48.6989 20.5525 50.011 21.3837C50.6051 21.7615 50.9517 22.1897 51.0507 22.6682C51.1745 23.1468 51.1126 23.5876 50.865 23.9906C50.6917 24.3432 50.3947 24.5824 49.9738 24.7084C49.5777 24.8091 49.1321 24.7336 48.637 24.4817C47.6221 23.9276 46.6937 23.4742 45.852 23.1216C45.0104 22.769 44.1192 22.5171 43.1785 22.366C42.2625 22.2149 41.198 22.1393 39.985 22.1393C36.5935 22.1393 33.561 22.9201 30.8874 24.4817C28.2385 26.0433 26.1343 28.1842 24.5747 30.9044C23.0399 33.6246 22.2724 36.71 22.2724 40.1606C22.2724 42.2007 22.5571 44.1023 23.1265 45.8654C23.7206 47.6033 24.2776 49.1523 24.7975 50.5124ZM54.207 29.3554C53.8852 28.8264 53.7738 28.3227 53.8728 27.8442C53.9718 27.3404 54.2318 26.9626 54.6526 26.7107C55.0735 26.4841 55.5191 26.4463 55.9894 26.5974C56.4845 26.7233 56.9054 27.0508 57.2519 27.5797C58.3907 29.4183 59.3809 31.4711 60.2226 33.7379C61.0643 36.0047 61.7203 38.5486 62.1907 41.3695C62.661 44.1905 62.8962 47.3262 62.8962 50.7769C62.8962 55.7891 62.2402 60.5872 60.9281 65.1712C59.6161 69.7552 57.8337 73.6214 55.581 76.7698C55.2591 77.198 54.8259 77.412 54.2813 77.412C53.7367 77.4372 53.2911 77.2735 52.9445 76.9209C52.5979 76.5683 52.437 76.1527 52.4618 75.6741C52.5113 75.2208 52.6722 74.7926 52.9445 74.3896C54.9992 71.6694 56.6083 68.2188 57.7718 64.0378C58.9601 59.8568 59.5542 55.4742 59.5542 50.8902C59.5542 46.5832 59.1086 42.5911 58.2174 38.9138C57.3262 35.2113 55.9894 32.0252 54.207 29.3554ZM24.7232 75.0697C24.3024 75.4223 23.8444 75.5734 23.3493 75.523C22.8542 75.4726 22.4581 75.2334 22.1611 74.8052C21.8887 74.4274 21.7773 73.9992 21.8269 73.5207C21.9011 73.0673 22.1487 72.6769 22.5695 72.3495C25.1193 70.2086 27.075 67.5514 28.4366 64.3778C29.7981 61.1791 30.4665 57.6907 30.4418 53.9126C30.417 52.1747 30.219 50.462 29.8476 48.7745C29.4763 47.0618 29.105 45.4246 28.7336 43.863C28.3623 42.2763 28.1766 40.8028 28.1766 39.4427C28.1766 37.1759 28.6841 35.1861 29.6991 33.4734C30.7388 31.7607 32.1251 30.4384 33.858 29.5065C35.6157 28.5494 37.5837 28.0708 39.7622 28.0708C42.9804 28.0708 45.5797 29.0153 47.5602 30.9044C49.5406 32.7682 50.9888 35.3625 51.9048 38.6871C52.8207 42.0118 53.2911 45.8402 53.3158 50.1724C53.3158 54.3534 52.8455 58.3455 51.9048 62.1488C50.9888 65.9268 49.7387 69.3144 48.1543 72.3117C46.57 75.3089 44.7876 77.7143 42.8071 79.5277C42.411 79.9055 41.9531 80.0567 41.4332 79.9811C40.9381 79.9307 40.5544 79.7166 40.2821 79.3388C40.0345 78.961 39.9355 78.5581 39.985 78.1299C40.0345 77.7017 40.2449 77.3239 40.6163 76.9965C42.4482 75.3089 44.0944 73.1429 45.555 70.4982C47.0156 67.8536 48.1543 64.8312 48.9712 61.4309C49.7882 58.0307 50.1595 54.3534 50.0852 50.3991C50.0357 46.7218 49.652 43.4726 48.9341 40.6517C48.241 37.8056 47.1517 35.5765 45.6664 33.9646C44.1811 32.3274 42.213 31.5089 39.7622 31.5089C37.3362 31.5089 35.3557 32.2645 33.8209 33.7757C32.286 35.2617 31.5186 37.2389 31.5186 39.7072C31.5186 40.9414 31.7043 42.2385 32.0756 43.5986C32.447 44.9587 32.8307 46.4825 33.2267 48.17C33.6228 49.8575 33.8209 51.7717 33.8209 53.9126C33.8456 58.2196 33.0658 62.2243 31.4815 65.9268C29.9219 69.6041 27.6691 72.6517 24.7232 75.0697ZM33.1154 78.0921C32.6945 78.4195 32.2242 78.5455 31.7043 78.4699C31.2092 78.4195 30.8378 78.1802 30.5903 77.7521C30.318 77.3491 30.2313 76.9083 30.3304 76.4298C30.4294 75.9764 30.6769 75.5986 31.073 75.2963C32.3603 74.2889 33.5981 72.9666 34.7863 71.3294C35.9994 69.6922 37.101 67.5388 38.0912 64.8689C38.2397 64.4156 38.5244 64.1007 38.9453 63.9244C39.3661 63.7229 39.8117 63.7104 40.2821 63.8867C40.7524 64.0378 41.0495 64.34 41.1733 64.7934C41.297 65.2468 41.297 65.6749 41.1733 66.0779C40.3316 68.7729 39.1433 71.1783 37.6085 73.294C36.0984 75.4097 34.6007 77.0091 33.1154 78.0921ZM43.2527 57.804C43.1537 58.3581 42.8938 58.7863 42.4729 59.0885C42.0768 59.3656 41.6312 59.4538 41.1361 59.353C40.6163 59.2523 40.2573 59.013 40.0593 58.6352C39.8612 58.2322 39.8117 57.804 39.9107 57.3507C40.2573 55.8394 40.4306 54.2149 40.4306 52.477C40.4306 50.7139 40.2821 48.9256 39.985 47.1122C39.6879 45.2735 39.2423 43.4978 38.6482 41.7851C38.4502 41.2562 38.4625 40.7902 38.6853 40.3872C38.9081 39.9591 39.2423 39.6694 39.6879 39.5183C40.1583 39.3672 40.6039 39.405 41.0247 39.6316C41.4456 39.8331 41.7674 40.2361 41.9902 40.8406C42.6091 42.6289 43.0794 44.5305 43.4013 46.5455C43.7231 48.5352 43.8716 50.5124 43.8469 52.477C43.8221 54.4164 43.6241 56.1921 43.2527 57.804Z" fill="url(#paint0_linear_579_11683)"/>
<defs>
<linearGradient id="paint0_linear_579_11683" x1="0.5" y1="40.8" x2="91.373" y2="39.5983" gradientUnits="userSpaceOnUse">
<stop stop-color="#3FD0D8"/>
<stop offset="1" stop-color="#0336A7"/>
</linearGradient>
</defs>
</svg>
