<svg width="32" height="32" viewBox="0 0 32 32" fill="none" xmlns="http://www.w3.org/2000/svg">
<path d="M22 20.6667V14.6667C22 11.353 19.3137 8.66675 16 8.66675C12.6863 8.66675 10 11.353 10 14.6667V20.6667" stroke="#374151" stroke-width="2" stroke-linecap="round" stroke-linejoin="round"/>
<path d="M18 16.6667V14.6667C18 13.5622 17.1045 12.6667 16 12.6667C14.8955 12.6667 14 13.5622 14 14.6667V22.0001M18 20.6667V23.3334" stroke="#374151" stroke-width="2" stroke-linecap="round" stroke-linejoin="round"/>
<path d="M20 3.33325H26C27.4728 3.33325 28.6667 4.52716 28.6667 5.99992V11.9999M12 3.33325H6.00001C4.52725 3.33325 3.33334 4.52716 3.33334 5.99992V11.9999M12 28.6666H6.00001C4.52725 28.6666 3.33334 27.4727 3.33334 25.9999V19.9999M20 28.6666H26C27.4728 28.6666 28.6667 27.4727 28.6667 25.9999V19.9999" stroke="#374151" stroke-width="2" stroke-linecap="round" stroke-linejoin="round"/>
</svg>
