<svg width="80" height="80" viewBox="0 0 80 80" fill="none" xmlns="http://www.w3.org/2000/svg">
<path d="M63.1908 9.88C62.8711 9.88 62.5514 9.8 62.2717 9.64C54.5998 5.68 47.9667 4 40.015 4C32.1033 4 24.5911 5.88 17.7583 9.64C16.7993 10.16 15.6005 9.8 15.0411 8.84C14.5216 7.88 14.8813 6.64 15.8403 6.12C23.2725 2.08 31.424 0 40.015 0C48.5261 0 55.9583 1.88 64.1098 6.08C65.1088 6.6 65.4684 7.8 64.9489 8.76C64.5893 9.48 63.91 9.88 63.1908 9.88ZM6.01053 30.88C5.61095 30.88 5.21137 30.76 4.85175 30.52C3.93271 29.88 3.73291 28.64 4.37225 27.72C8.32811 22.12 13.3629 17.72 19.3566 14.64C31.9035 8.16 47.9667 8.12 60.5535 14.6C66.5473 17.68 71.582 22.04 75.5379 27.6C76.1772 28.48 75.9774 29.76 75.0584 30.4C74.1393 31.04 72.9006 30.84 72.2613 29.92C68.6651 24.88 64.1098 20.92 58.7155 18.16C47.2474 12.28 32.5828 12.28 21.1547 18.2C15.7204 21 11.1651 25 7.56891 30.04C7.24924 30.6 6.64987 30.88 6.01053 30.88ZM30.9844 79.16C30.465 79.16 29.9455 78.96 29.5859 78.56C26.1095 75.08 24.2315 72.84 21.5543 68C18.7972 63.08 17.3587 57.08 17.3587 50.64C17.3587 38.76 27.5081 29.08 39.975 29.08C52.442 29.08 62.5914 38.76 62.5914 50.64C62.5914 51.76 61.7123 52.64 60.5935 52.64C59.4747 52.64 58.5956 51.76 58.5956 50.64C58.5956 40.96 50.2443 33.08 39.975 33.08C29.7058 33.08 21.3545 40.96 21.3545 50.64C21.3545 56.4 22.6332 61.72 25.0706 66.04C27.6279 70.64 29.3861 72.6 32.4629 75.72C33.2221 76.52 33.2221 77.76 32.4629 78.56C32.0233 78.96 31.5039 79.16 30.9844 79.16ZM59.6345 71.76C54.8795 71.76 50.6838 70.56 47.2474 68.2C41.2937 64.16 37.7374 57.6 37.7374 50.64C37.7374 49.52 38.6165 48.64 39.7353 48.64C40.8541 48.64 41.7332 49.52 41.7332 50.64C41.7332 56.28 44.6102 61.6 49.4851 64.88C52.3221 66.8 55.6387 67.72 59.6345 67.72C60.5935 67.72 62.1918 67.6 63.7901 67.32C64.869 67.12 65.9079 67.84 66.1077 68.96C66.3075 70.04 65.5883 71.08 64.4694 71.28C62.1918 71.72 60.1939 71.76 59.6345 71.76ZM51.6029 80C51.4431 80 51.2433 79.96 51.0834 79.92C44.7301 78.16 40.5744 75.8 36.219 71.52C30.6248 65.96 27.548 58.56 27.548 50.64C27.548 44.16 33.0623 38.88 39.8552 38.88C46.6481 38.88 52.1623 44.16 52.1623 50.64C52.1623 54.92 55.8784 58.4 60.4736 58.4C65.0688 58.4 68.7849 54.92 68.7849 50.64C68.7849 35.56 55.7985 23.32 39.8152 23.32C28.4671 23.32 18.0779 29.64 13.4028 39.44C11.8444 42.68 11.0453 46.48 11.0453 50.64C11.0453 53.76 11.325 58.68 13.7225 65.08C14.1221 66.12 13.6026 67.28 12.5637 67.64C11.5248 68.04 10.366 67.48 10.0064 66.48C8.0484 61.24 7.08941 56.04 7.08941 50.64C7.08941 45.84 8.00845 41.48 9.80657 37.68C15.121 26.52 26.9087 19.28 39.8152 19.28C57.9962 19.28 72.7807 33.32 72.7807 50.6C72.7807 57.08 67.2665 62.36 60.4736 62.36C53.6807 62.36 48.1665 57.08 48.1665 50.6C48.1665 46.32 44.4504 42.84 39.8552 42.84C35.26 42.84 31.5438 46.32 31.5438 50.6C31.5438 57.44 34.1811 63.84 39.016 68.64C42.8121 72.4 46.4483 74.48 52.0824 76.04C53.1613 76.32 53.7606 77.44 53.4809 78.48C53.2811 79.4 52.442 80 51.6029 80Z" fill="url(#paint0_linear_602_10201)"/>
<defs>
<linearGradient id="paint0_linear_602_10201" x1="4" y1="40.8" x2="85.6863" y2="39.829" gradientUnits="userSpaceOnUse">
<stop stop-color="#3FD0D8"/>
<stop offset="1" stop-color="#0336A7"/>
</linearGradient>
</defs>
</svg>
