<svg width="58" height="58" viewBox="0 0 58 58" fill="none" xmlns="http://www.w3.org/2000/svg">
<path d="M23.333 10.667C24.4376 10.667 25.333 11.5624 25.333 12.667C25.333 13.7716 24.4376 14.667 23.333 14.667H17.5557C16.2101 14.6671 14.996 15.4767 14.4785 16.7188L10.0732 27.29L12.9131 28H44.4199L49.124 26.8232L54.1338 23.0674C55.0174 22.4048 56.2708 22.5833 56.9336 23.4668C57.5963 24.3504 57.4168 25.6038 56.5332 26.2666L52.7129 29.1309L56.1016 34.2139C56.9046 35.4184 57.333 36.8343 57.333 38.2822V52.667C57.333 55.2443 55.2442 57.3338 52.667 57.334H50C47.4228 57.3338 45.333 55.2443 45.333 52.667V49.334H12V52.667C12 55.2444 9.9103 57.334 7.33301 57.334H4.66699C2.08985 57.3338 0 55.2443 0 52.667V38.2822C0 36.8344 0.428379 35.4184 1.23145 34.2139L4.61914 29.1309L0.799805 26.2666C-0.0833482 25.6038 -0.262083 24.3503 0.400391 23.4668C1.06314 22.5835 2.31666 22.4049 3.2002 23.0674L6.47559 25.5234L10.7861 15.1797C11.9247 12.4471 14.5953 10.6671 17.5557 10.667H23.333ZM45.1514 31.9404C44.993 31.98 44.8302 32 44.667 32H12.667C12.5036 32 12.3402 31.9801 12.1816 31.9404L8.21484 30.9482L4.55957 36.4326C4.19466 36.98 4 37.6241 4 38.2822V52.667C4 53.0351 4.29894 53.3338 4.66699 53.334H7.33301C7.70121 53.334 8 53.0352 8 52.667V47.334C8 46.2295 8.89558 45.3342 10 45.334H47.333C48.4376 45.334 49.333 46.2294 49.333 47.334V52.667C49.333 53.0351 49.6319 53.3338 50 53.334H52.667C53.0351 53.3338 53.333 53.0351 53.333 52.667V38.2822C53.333 37.6241 53.1384 36.9801 52.7734 36.4326L49.1172 30.9482L45.1514 31.9404ZM12.667 36.667C14.1398 36.667 15.334 37.8612 15.334 39.334V39.3604C15.3338 40.833 14.1396 42.0273 12.667 42.0273C11.1943 42.0273 10.0002 40.833 10 39.3604V39.334C10 37.8612 11.1942 36.667 12.667 36.667ZM44.667 36.667C46.1398 36.667 47.334 37.8612 47.334 39.334V39.3604C47.3338 40.833 46.1396 42.0273 44.667 42.0273C43.1943 42.0273 42.0002 40.833 42 39.3604V39.334C42 37.8612 43.1942 36.667 44.667 36.667ZM42.001 0C48.9962 0.000350977 54.6668 5.67175 54.667 12.667C54.6668 19.6622 48.9962 25.3327 42.001 25.333C35.0055 25.333 29.3342 19.6624 29.334 12.667C29.3342 5.67153 35.0055 0 42.001 0ZM42.001 4C37.2146 4 33.3342 7.88067 33.334 12.667C33.3342 17.4533 37.2146 21.333 42.001 21.333C46.787 21.3327 50.6668 17.4531 50.667 12.667C50.6668 7.88089 46.787 4.00035 42.001 4ZM42 15.9727C43.1045 15.9727 43.9998 16.8682 44 17.9727V17.999C44 19.1036 43.1046 19.999 42 19.999C40.8956 19.9988 40 19.1035 40 17.999V17.9727C40.0002 16.8683 40.8957 15.9728 42 15.9727ZM42 5.33398C43.1046 5.33398 44 6.22941 44 7.33398V12.667C43.9998 13.7714 43.1045 14.667 42 14.667C40.8957 14.6668 40.0002 13.7713 40 12.667V7.33398C40 6.22952 40.8956 5.33416 42 5.33398Z" fill="url(#paint0_linear_2005_29147)"/>
<defs>
<linearGradient id="paint0_linear_2005_29147" x1="-2.96637e-08" y1="-27.0744" x2="57.3335" y2="-27.0744" gradientUnits="userSpaceOnUse">
<stop stop-color="#3FD0D8"/>
<stop offset="1" stop-color="#0336A7"/>
</linearGradient>
</defs>
</svg>
