<svg width="20" height="20" viewBox="0 0 20 20" fill="none" xmlns="http://www.w3.org/2000/svg">
<path d="M17.0126 18.125C18.0872 18.125 18.9584 17.2538 18.9584 16.1792C18.9584 15.8868 18.8926 15.5987 18.7663 15.3361L18.7086 15.2254L11.7864 2.91992C11.4233 2.27453 10.7406 1.875 10.0001 1.875C9.30583 1.875 8.66233 2.22619 8.2854 2.80192L8.21379 2.91992L1.29158 15.2254C1.1278 15.5166 1.04176 15.8451 1.04175 16.1792C1.04175 17.2538 1.91296 18.125 2.98755 18.125H17.0126ZM10.0001 12.0833C9.53983 12.0833 9.16675 11.7102 9.16675 11.25V7.5C9.16675 7.03976 9.53983 6.66667 10.0001 6.66667C10.4603 6.66667 10.8334 7.03976 10.8334 7.5V11.25C10.8334 11.7102 10.4603 12.0833 10.0001 12.0833ZM10.0001 15.0082C9.53983 15.0082 9.16675 14.6351 9.16675 14.1748V14.1667C9.16675 13.7064 9.53983 13.3333 10.0001 13.3333C10.4603 13.3333 10.8334 13.7064 10.8334 14.1667V14.1748C10.8334 14.6351 10.4603 15.0082 10.0001 15.0082Z" fill="#B45309"/>
</svg>
