<svg width="81" height="80" viewBox="0 0 81 80" fill="none" xmlns="http://www.w3.org/2000/svg">
<g clip-path="url(#clip0_581_12422)">
<path d="M40.667 0.166992C47.4931 0.166994 53.9277 1.87766 59.5557 4.89746L60.6689 5.51953L60.9092 5.67578C62.0552 6.50416 62.4117 8.08248 61.6885 9.33301C60.965 10.5837 59.4185 11.0622 58.1289 10.4814L57.875 10.3506L56.917 9.81836C52.0792 7.22218 46.549 5.74805 40.667 5.74805C21.6579 5.74805 6.24806 21.158 6.24805 40.167C6.24805 59.1759 21.6579 74.5859 40.667 74.5859C59.6759 74.5859 75.0859 59.1759 75.0859 40.167C75.0859 38.1012 74.9052 36.0796 74.5576 34.1172L74.3975 33.2793L74.3555 32.998C74.2156 31.5905 75.1612 30.2777 76.5771 29.9902C77.993 29.703 79.3768 30.5423 79.7969 31.8926L79.8682 32.1709L80.0537 33.1445C80.4578 35.426 80.667 37.7732 80.667 40.167C80.667 62.2584 62.7584 80.167 40.667 80.167C18.5754 80.167 0.666992 62.2584 0.666992 40.167C0.667004 18.0754 18.5754 0.166992 40.667 0.166992ZM76.9062 11.5039C78.3511 10.9681 79.9571 11.7055 80.4932 13.1504C81.029 14.5953 80.2915 16.2012 78.8467 16.7373C74.7428 18.2601 70.3161 21.395 65.9033 25.4492C61.5216 29.475 57.3117 34.2592 53.6299 38.8828C49.9539 43.4992 46.8382 47.9124 44.6406 51.1738C43.5429 52.803 42.6758 54.1417 42.0859 55.0693C41.7911 55.533 41.5658 55.8946 41.415 56.1377C41.3398 56.2591 41.2824 56.3514 41.2451 56.4121C41.2268 56.4421 41.2139 56.4651 41.2051 56.4795C41.2007 56.4867 41.1953 56.4929 41.1934 56.4961L41.1924 56.4971V56.499C41.1923 56.4988 41.1918 56.4979 41.1904 56.4971C40.6635 57.3656 39.7074 57.8811 38.6924 57.8398C37.6775 57.7982 36.765 57.2082 36.3105 56.2998C33.7229 51.1245 30.7632 48.2117 28.5615 46.6104C27.454 45.8049 26.5204 45.3199 25.8994 45.0439C25.589 44.906 25.356 44.8203 25.2178 44.7734C25.1605 44.754 25.1192 44.7406 25.0957 44.7334H25.0996L25.1035 44.7354L25.1055 44.7334C23.6111 44.3591 22.7026 42.8453 23.0762 41.3506C23.4503 39.8558 24.966 38.9466 26.4609 39.3203L25.9463 41.374C26.4433 39.3871 26.4609 39.322 26.4629 39.3203L26.4658 39.3223C26.468 39.3228 26.4713 39.3236 26.4736 39.3242C26.4788 39.3255 26.4852 39.3266 26.4912 39.3281C26.5034 39.3313 26.5175 39.3366 26.5332 39.3408C26.5652 39.3495 26.6054 39.3596 26.6514 39.373C26.7437 39.4001 26.8646 39.4371 27.0098 39.4863C27.3003 39.5848 27.693 39.7317 28.167 39.9424C29.1157 40.3641 30.3924 41.0419 31.8428 42.0967C34.0162 43.6773 36.5435 46.0816 38.9297 49.6846C39.2616 49.1813 39.6208 48.6354 40.0107 48.0566C42.266 44.7096 45.4718 40.1684 49.2646 35.4053C53.0519 30.6493 57.4607 25.6269 62.1279 21.3389C66.7641 17.0795 71.8175 13.392 76.9062 11.5039ZM25.085 44.7295C25.086 44.7298 25.0877 44.7299 25.0889 44.7305L25.0742 44.7275C25.076 44.728 25.08 44.7283 25.085 44.7295Z" fill="url(#paint0_linear_581_12422)"/>
</g>
<defs>
<linearGradient id="paint0_linear_581_12422" x1="0.666992" y1="40.967" x2="91.5411" y2="39.7653" gradientUnits="userSpaceOnUse">
<stop stop-color="#3FD0D8"/>
<stop offset="1" stop-color="#0336A7"/>
</linearGradient>
<clipPath id="clip0_581_12422">
<rect width="80" height="80" fill="white" transform="translate(0.5)"/>
</clipPath>
</defs>
</svg>
